<svg xmlns="http://www.w3.org/2000/svg" viewBox="0 0 2000 2000" width="2000" height="2000" class="home-banner-animation" preserveAspectRatio="xMidYMid meet" style="width: 100%; height: 100%; transform: translate3d(0px, 0px, 0px); content-visibility: visible;"><defs><clipPath id="__lottie_element_2"><rect width="2000" height="2000" x="0" y="0"></rect></clipPath><clipPath id="__lottie_element_19"><path d="M0,0 L2000,0 L2000,2000 L0,2000z"></path></clipPath></defs><g clip-path="url(#__lottie_element_2)"><g style="display: block;" transform="matrix(1.0004199743270874,0,0,1.0004199743270874,989.0689697265625,1096.7373046875)" opacity="1"><g opacity="1" transform="matrix(1,0,0,1,0,0)"><path fill="rgb(236,243,254)" fill-opacity="1" d=" M484.5740051269531,575.666015625 C718.6179809570312,286.4159851074219 742.8729858398438,-88.18699645996094 565.947021484375,-327.7619934082031 C400.6159973144531,-551.635986328125 122.79900360107422,-572.0659790039062 69.63300323486328,-574.7760009765625 C-216.38600158691406,-589.3560180664062 -537.5689697265625,-424.3580017089844 -646.2479858398438,-112.76899719238281 C-765.8729858398438,230.2050018310547 -549.5780029296875,525.822021484375 -510.0360107421875,575.666015625 C-510.0360107421875,575.666015625 484.5740051269531,575.666015625 484.5740051269531,575.666015625z"></path></g></g><g style="display: block;" transform="matrix(1.0004199743270874,0,0,1.0004199743270874,967.6119384765625,1674.36279296875)" opacity="1"><g opacity="1" transform="matrix(1,0,0,1,0,0)"><path fill="rgb(183,202,229)" fill-opacity="1" d=" M534.7119750976562,0 C534.7119750976562,14.11299991607666 295.31298828125,25.55299949645996 0,25.55299949645996 C-295.31298828125,25.55299949645996 -534.7119750976562,14.11299991607666 -534.7119750976562,0 C-534.7119750976562,-14.11299991607666 -295.31298828125,-25.55299949645996 0,-25.55299949645996 C295.31298828125,-25.55299949645996 534.7119750976562,-14.11299991607666 534.7119750976562,0z"></path></g></g><g style="display: block;" transform="matrix(1,0,0,1,0,-0.35400390625)" opacity="1"><g opacity="1" transform="matrix(1,0,0,1,714.2589721679688,1640.8909912109375)"><path fill="rgb(255,197,82)" fill-opacity="1" d=" M185.50900268554688,-33.93050003051758 C185.50900268554688,-33.93050003051758 185.50900268554688,33.93050003051758 185.50900268554688,33.93050003051758 C185.50900268554688,33.93050003051758 -185.50900268554688,33.93050003051758 -185.50900268554688,33.93050003051758 C-185.50900268554688,33.93050003051758 -185.50900268554688,-33.93050003051758 -185.50900268554688,-33.93050003051758 C-185.50900268554688,-33.93050003051758 185.50900268554688,-33.93050003051758 185.50900268554688,-33.93050003051758z"></path></g><g opacity="1" transform="matrix(1,0,0,1,573.489990234375,1640.8909912109375)"><path fill="rgb(255,218,113)" fill-opacity="1" d=" M15.906499862670898,-33.93050003051758 C15.906499862670898,-33.93050003051758 15.906499862670898,33.93050003051758 15.906499862670898,33.93050003051758 C15.906499862670898,33.93050003051758 -15.906499862670898,33.93050003051758 -15.906499862670898,33.93050003051758 C-15.906499862670898,33.93050003051758 -15.906499862670898,-33.93050003051758 -15.906499862670898,-33.93050003051758 C-15.906499862670898,-33.93050003051758 15.906499862670898,-33.93050003051758 15.906499862670898,-33.93050003051758z"></path></g><g opacity="1" transform="matrix(1,0,0,1,788.885009765625,1640.8909912109375)"><path fill="rgb(252,172,43)" fill-opacity="1" d=" M87.30750274658203,-33.93050003051758 C87.30750274658203,-33.93050003051758 87.30750274658203,33.93050003051758 87.30750274658203,33.93050003051758 C87.30750274658203,33.93050003051758 -87.30750274658203,33.93050003051758 -87.30750274658203,33.93050003051758 C-87.30750274658203,33.93050003051758 -87.30750274658203,-33.93050003051758 -87.30750274658203,-33.93050003051758 C-87.30750274658203,-33.93050003051758 87.30750274658203,-33.93050003051758 87.30750274658203,-33.93050003051758z"></path></g><g opacity="1" transform="matrix(1,0,0,1,714.2589721679688,1671.8599853515625)"><path fill="rgb(239,157,38)" fill-opacity="1" d=" M185.50900268554688,-2.9619998931884766 C185.50900268554688,-2.9619998931884766 185.50900268554688,2.9619998931884766 185.50900268554688,2.9619998931884766 C185.50900268554688,2.9619998931884766 -185.50900268554688,2.9619998931884766 -185.50900268554688,2.9619998931884766 C-185.50900268554688,2.9619998931884766 -185.50900268554688,-2.9619998931884766 -185.50900268554688,-2.9619998931884766 C-185.50900268554688,-2.9619998931884766 185.50900268554688,-2.9619998931884766 185.50900268554688,-2.9619998931884766z"></path></g></g><g style="display: block;" transform="matrix(1,0,0,1,0,-0.14599609375)" opacity="1"><g opacity="1" transform="matrix(1,0,0,1,689.343017578125,1573.031005859375)"><path fill="rgb(255,197,82)" fill-opacity="1" d=" M185.50900268554688,-33.93050003051758 C185.50900268554688,-33.93050003051758 185.50900268554688,33.93050003051758 185.50900268554688,33.93050003051758 C185.50900268554688,33.93050003051758 -185.50900268554688,33.93050003051758 -185.50900268554688,33.93050003051758 C-185.50900268554688,33.93050003051758 -185.50900268554688,-33.93050003051758 -185.50900268554688,-33.93050003051758 C-185.50900268554688,-33.93050003051758 185.50900268554688,-33.93050003051758 185.50900268554688,-33.93050003051758z"></path></g><g opacity="1" transform="matrix(1,0,0,1,548.572998046875,1573.031005859375)"><path fill="rgb(255,218,113)" fill-opacity="1" d=" M15.906499862670898,-33.93050003051758 C15.906499862670898,-33.93050003051758 15.906499862670898,33.93050003051758 15.906499862670898,33.93050003051758 C15.906499862670898,33.93050003051758 -15.906499862670898,33.93050003051758 -15.906499862670898,33.93050003051758 C-15.906499862670898,33.93050003051758 -15.906499862670898,-33.93050003051758 -15.906499862670898,-33.93050003051758 C-15.906499862670898,-33.93050003051758 15.906499862670898,-33.93050003051758 15.906499862670898,-33.93050003051758z"></path></g><g opacity="1" transform="matrix(1,0,0,1,763.968017578125,1573.031005859375)"><path fill="rgb(252,172,43)" fill-opacity="1" d=" M87.30750274658203,-33.93050003051758 C87.30750274658203,-33.93050003051758 87.30750274658203,33.93050003051758 87.30750274658203,33.93050003051758 C87.30750274658203,33.93050003051758 -87.30750274658203,33.93050003051758 -87.30750274658203,33.93050003051758 C-87.30750274658203,33.93050003051758 -87.30750274658203,-33.93050003051758 -87.30750274658203,-33.93050003051758 C-87.30750274658203,-33.93050003051758 87.30750274658203,-33.93050003051758 87.30750274658203,-33.93050003051758z"></path></g><g opacity="1" transform="matrix(1,0,0,1,689.343017578125,1603.9990234375)"><path fill="rgb(239,157,38)" fill-opacity="1" d=" M185.50900268554688,-2.9619998931884766 C185.50900268554688,-2.9619998931884766 185.50900268554688,2.9619998931884766 185.50900268554688,2.9619998931884766 C185.50900268554688,2.9619998931884766 -185.50900268554688,2.9619998931884766 -185.50900268554688,2.9619998931884766 C-185.50900268554688,2.9619998931884766 -185.50900268554688,-2.9619998931884766 -185.50900268554688,-2.9619998931884766 C-185.50900268554688,-2.9619998931884766 185.50900268554688,-2.9619998931884766 185.50900268554688,-2.9619998931884766z"></path></g></g><g style="display: block;" transform="matrix(1,0,0,1,0,-0.1448974609375)" opacity="1"><g opacity="1" transform="matrix(1,0,0,1,703.9459838867188,1504.428955078125)"><path fill="rgb(255,197,82)" fill-opacity="1" d=" M185.50900268554688,-33.93050003051758 C185.50900268554688,-33.93050003051758 185.50900268554688,33.93050003051758 185.50900268554688,33.93050003051758 C185.50900268554688,33.93050003051758 -185.50900268554688,33.93050003051758 -185.50900268554688,33.93050003051758 C-185.50900268554688,33.93050003051758 -185.50900268554688,-33.93050003051758 -185.50900268554688,-33.93050003051758 C-185.50900268554688,-33.93050003051758 185.50900268554688,-33.93050003051758 185.50900268554688,-33.93050003051758z"></path></g><g opacity="1" transform="matrix(1,0,0,1,563.177001953125,1504.428955078125)"><path fill="rgb(255,218,113)" fill-opacity="1" d=" M15.906499862670898,-33.93050003051758 C15.906499862670898,-33.93050003051758 15.906499862670898,33.93050003051758 15.906499862670898,33.93050003051758 C15.906499862670898,33.93050003051758 -15.906499862670898,33.93050003051758 -15.906499862670898,33.93050003051758 C-15.906499862670898,33.93050003051758 -15.906499862670898,-33.93050003051758 -15.906499862670898,-33.93050003051758 C-15.906499862670898,-33.93050003051758 15.906499862670898,-33.93050003051758 15.906499862670898,-33.93050003051758z"></path></g><g opacity="1" transform="matrix(1,0,0,1,778.572021484375,1504.428955078125)"><path fill="rgb(252,172,43)" fill-opacity="1" d=" M87.30750274658203,-33.93050003051758 C87.30750274658203,-33.93050003051758 87.30750274658203,33.93050003051758 87.30750274658203,33.93050003051758 C87.30750274658203,33.93050003051758 -87.30750274658203,33.93050003051758 -87.30750274658203,33.93050003051758 C-87.30750274658203,33.93050003051758 -87.30750274658203,-33.93050003051758 -87.30750274658203,-33.93050003051758 C-87.30750274658203,-33.93050003051758 87.30750274658203,-33.93050003051758 87.30750274658203,-33.93050003051758z"></path></g><g opacity="1" transform="matrix(1,0,0,1,703.9459838867188,1535.39697265625)"><path fill="rgb(239,157,38)" fill-opacity="1" d=" M185.50900268554688,-2.9619998931884766 C185.50900268554688,-2.9619998931884766 185.50900268554688,2.9619998931884766 185.50900268554688,2.9619998931884766 C185.50900268554688,2.9619998931884766 -185.50900268554688,2.9619998931884766 -185.50900268554688,2.9619998931884766 C-185.50900268554688,2.9619998931884766 -185.50900268554688,-2.9619998931884766 -185.50900268554688,-2.9619998931884766 C-185.50900268554688,-2.9619998931884766 185.50900268554688,-2.9619998931884766 185.50900268554688,-2.9619998931884766z"></path></g></g><g style="display: block;" transform="matrix(1,0,0,1,0,-0.14501953125)" opacity="1"><g opacity="1" transform="matrix(1,0,0,1,662.1270141601562,1436.5679931640625)"><path fill="rgb(255,197,82)" fill-opacity="1" d=" M185.50900268554688,-33.93050003051758 C185.50900268554688,-33.93050003051758 185.50900268554688,33.93050003051758 185.50900268554688,33.93050003051758 C185.50900268554688,33.93050003051758 -185.50900268554688,33.93050003051758 -185.50900268554688,33.93050003051758 C-185.50900268554688,33.93050003051758 -185.50900268554688,-33.93050003051758 -185.50900268554688,-33.93050003051758 C-185.50900268554688,-33.93050003051758 185.50900268554688,-33.93050003051758 185.50900268554688,-33.93050003051758z"></path></g><g opacity="1" transform="matrix(1,0,0,1,521.3569946289062,1436.5679931640625)"><path fill="rgb(255,218,113)" fill-opacity="1" d=" M15.906499862670898,-33.93050003051758 C15.906499862670898,-33.93050003051758 15.906499862670898,33.93050003051758 15.906499862670898,33.93050003051758 C15.906499862670898,33.93050003051758 -15.906499862670898,33.93050003051758 -15.906499862670898,33.93050003051758 C-15.906499862670898,33.93050003051758 -15.906499862670898,-33.93050003051758 -15.906499862670898,-33.93050003051758 C-15.906499862670898,-33.93050003051758 15.906499862670898,-33.93050003051758 15.906499862670898,-33.93050003051758z"></path></g><g opacity="1" transform="matrix(1,0,0,1,736.7520141601562,1436.5679931640625)"><path fill="rgb(252,172,43)" fill-opacity="1" d=" M87.30750274658203,-33.93050003051758 C87.30750274658203,-33.93050003051758 87.30750274658203,33.93050003051758 87.30750274658203,33.93050003051758 C87.30750274658203,33.93050003051758 -87.30750274658203,33.93050003051758 -87.30750274658203,33.93050003051758 C-87.30750274658203,33.93050003051758 -87.30750274658203,-33.93050003051758 -87.30750274658203,-33.93050003051758 C-87.30750274658203,-33.93050003051758 87.30750274658203,-33.93050003051758 87.30750274658203,-33.93050003051758z"></path></g><g opacity="1" transform="matrix(1,0,0,1,662.1270141601562,1467.5369873046875)"><path fill="rgb(239,157,38)" fill-opacity="1" d=" M185.50900268554688,-2.9619998931884766 C185.50900268554688,-2.9619998931884766 185.50900268554688,2.9619998931884766 185.50900268554688,2.9619998931884766 C185.50900268554688,2.9619998931884766 -185.50900268554688,2.9619998931884766 -185.50900268554688,2.9619998931884766 C-185.50900268554688,2.9619998931884766 -185.50900268554688,-2.9619998931884766 -185.50900268554688,-2.9619998931884766 C-185.50900268554688,-2.9619998931884766 185.50900268554688,-2.9619998931884766 185.50900268554688,-2.9619998931884766z"></path></g></g><g style="display: block;" transform="matrix(1,0,0,1,0,-0.14599609375)" opacity="1"><g opacity="1" transform="matrix(1,0,0,1,676.6610107421875,1368.7080078125)"><path fill="rgb(255,197,82)" fill-opacity="1" d=" M185.50900268554688,-33.93050003051758 C185.50900268554688,-33.93050003051758 185.50900268554688,33.93050003051758 185.50900268554688,33.93050003051758 C185.50900268554688,33.93050003051758 -185.50900268554688,33.93050003051758 -185.50900268554688,33.93050003051758 C-185.50900268554688,33.93050003051758 -185.50900268554688,-33.93050003051758 -185.50900268554688,-33.93050003051758 C-185.50900268554688,-33.93050003051758 185.50900268554688,-33.93050003051758 185.50900268554688,-33.93050003051758z"></path></g><g opacity="1" transform="matrix(1,0,0,1,535.8909912109375,1368.7080078125)"><path fill="rgb(255,218,113)" fill-opacity="1" d=" M15.906499862670898,-33.93050003051758 C15.906499862670898,-33.93050003051758 15.906499862670898,33.93050003051758 15.906499862670898,33.93050003051758 C15.906499862670898,33.93050003051758 -15.906499862670898,33.93050003051758 -15.906499862670898,33.93050003051758 C-15.906499862670898,33.93050003051758 -15.906499862670898,-33.93050003051758 -15.906499862670898,-33.93050003051758 C-15.906499862670898,-33.93050003051758 15.906499862670898,-33.93050003051758 15.906499862670898,-33.93050003051758z"></path></g><g opacity="1" transform="matrix(1,0,0,1,751.2860107421875,1368.7080078125)"><path fill="rgb(252,172,43)" fill-opacity="1" d=" M87.30750274658203,-33.93050003051758 C87.30750274658203,-33.93050003051758 87.30750274658203,33.93050003051758 87.30750274658203,33.93050003051758 C87.30750274658203,33.93050003051758 -87.30750274658203,33.93050003051758 -87.30750274658203,33.93050003051758 C-87.30750274658203,33.93050003051758 -87.30750274658203,-33.93050003051758 -87.30750274658203,-33.93050003051758 C-87.30750274658203,-33.93050003051758 87.30750274658203,-33.93050003051758 87.30750274658203,-33.93050003051758z"></path></g><g opacity="1" transform="matrix(1,0,0,1,676.6610107421875,1399.676025390625)"><path fill="rgb(239,157,38)" fill-opacity="1" d=" M185.50900268554688,-2.9619998931884766 C185.50900268554688,-2.9619998931884766 185.50900268554688,2.9619998931884766 185.50900268554688,2.9619998931884766 C185.50900268554688,2.9619998931884766 -185.50900268554688,2.9619998931884766 -185.50900268554688,2.9619998931884766 C-185.50900268554688,2.9619998931884766 -185.50900268554688,-2.9619998931884766 -185.50900268554688,-2.9619998931884766 C-185.50900268554688,-2.9619998931884766 185.50900268554688,-2.9619998931884766 185.50900268554688,-2.9619998931884766z"></path></g></g><g style="display: block;" transform="matrix(1,0,0,1,0,-0.14599609375)" opacity="1"><g opacity="1" transform="matrix(1,0,0,1,714.2589721679688,1300.51904296875)"><path fill="rgb(255,197,82)" fill-opacity="1" d=" M185.50900268554688,-33.93050003051758 C185.50900268554688,-33.93050003051758 185.50900268554688,33.93050003051758 185.50900268554688,33.93050003051758 C185.50900268554688,33.93050003051758 -185.50900268554688,33.93050003051758 -185.50900268554688,33.93050003051758 C-185.50900268554688,33.93050003051758 -185.50900268554688,-33.93050003051758 -185.50900268554688,-33.93050003051758 C-185.50900268554688,-33.93050003051758 185.50900268554688,-33.93050003051758 185.50900268554688,-33.93050003051758z"></path></g><g opacity="1" transform="matrix(1,0,0,1,573.489990234375,1300.51904296875)"><path fill="rgb(255,218,113)" fill-opacity="1" d=" M15.906499862670898,-33.93050003051758 C15.906499862670898,-33.93050003051758 15.906499862670898,33.93050003051758 15.906499862670898,33.93050003051758 C15.906499862670898,33.93050003051758 -15.906499862670898,33.93050003051758 -15.906499862670898,33.93050003051758 C-15.906499862670898,33.93050003051758 -15.906499862670898,-33.93050003051758 -15.906499862670898,-33.93050003051758 C-15.906499862670898,-33.93050003051758 15.906499862670898,-33.93050003051758 15.906499862670898,-33.93050003051758z"></path></g><g opacity="1" transform="matrix(1,0,0,1,788.885009765625,1300.51904296875)"><path fill="rgb(252,172,43)" fill-opacity="1" d=" M87.30750274658203,-33.93050003051758 C87.30750274658203,-33.93050003051758 87.30750274658203,33.93050003051758 87.30750274658203,33.93050003051758 C87.30750274658203,33.93050003051758 -87.30750274658203,33.93050003051758 -87.30750274658203,33.93050003051758 C-87.30750274658203,33.93050003051758 -87.30750274658203,-33.93050003051758 -87.30750274658203,-33.93050003051758 C-87.30750274658203,-33.93050003051758 87.30750274658203,-33.93050003051758 87.30750274658203,-33.93050003051758z"></path></g><g opacity="1" transform="matrix(1,0,0,1,714.2589721679688,1331.487060546875)"><path fill="rgb(239,157,38)" fill-opacity="1" d=" M185.50900268554688,-2.9619998931884766 C185.50900268554688,-2.9619998931884766 185.50900268554688,2.9619998931884766 185.50900268554688,2.9619998931884766 C185.50900268554688,2.9619998931884766 -185.50900268554688,2.9619998931884766 -185.50900268554688,2.9619998931884766 C-185.50900268554688,2.9619998931884766 -185.50900268554688,-2.9619998931884766 -185.50900268554688,-2.9619998931884766 C-185.50900268554688,-2.9619998931884766 185.50900268554688,-2.9619998931884766 185.50900268554688,-2.9619998931884766z"></path></g></g><g style="display: block;" transform="matrix(1,0,0,1,0,-0.2939453125)" opacity="1"><g opacity="1" transform="matrix(1,0,0,1,1332.9549560546875,1539.0999755859375)"><path fill="rgb(255,197,82)" fill-opacity="1" d=" M136.0260009765625,0.00800000037997961 C136.0260009765625,75.13099670410156 75.12000274658203,136.0260009765625 -0.008999999612569809,136.0260009765625 C-12.897000312805176,136.0260009765625 -25.357999801635742,134.23500061035156 -37.16999816894531,130.89100646972656 C-57.00600051879883,125.26699829101562 -74.99400329589844,115.26300048828125 -90.02899932861328,101.97799682617188 C-91.9280014038086,100.3030014038086 -93.78099822998047,98.56999969482422 -95.58300018310547,96.78600311279297 C-106.99800109863281,85.51499938964844 -116.4260025024414,72.23600006103516 -123.29900360107422,57.52399826049805 C-130.16600036621094,42.827999114990234 -134.47799682617188,26.700000762939453 -135.66900634765625,9.708000183105469 C-135.91099548339844,6.507999897003174 -136.0260009765625,3.259999990463257 -136.0260009765625,0.00800000037997961 C-136.0260009765625,-0.9419999718666077 -136.01400756835938,-1.8910000324249268 -135.99099731445312,-2.8410000801086426 C-135.98500061035156,-3.5139999389648438 -135.96200561523438,-4.186999797821045 -135.93899536132812,-4.861000061035156 C-135.8820037841797,-6.478000164031982 -135.7949981689453,-8.085000038146973 -135.68600463867188,-9.6850004196167 C-135.6280059814453,-10.491000175476074 -135.56500244140625,-11.28499984741211 -135.49600219726562,-12.085000038146973 C-135.3350067138672,-13.927000045776367 -135.13400268554688,-15.756999969482422 -134.8979949951172,-17.576000213623047 C-134.82899475097656,-18.117000579833984 -134.75399780273438,-18.652999877929688 -134.6790008544922,-19.194000244140625 C-134.58099365234375,-19.889999389648438 -134.4770050048828,-20.58099937438965 -134.3679962158203,-21.27199935913086 C-134.28199768066406,-21.858999252319336 -134.1840057373047,-22.44700050354004 -134.0800018310547,-23.027999877929688 C-134.0449981689453,-23.235000610351562 -134.01199340820312,-23.43600082397461 -133.9770050048828,-23.636999130249023 C-133.86199951171875,-24.292999267578125 -133.74099731445312,-24.950000762939453 -133.61399841308594,-25.600000381469727 C-133.6020050048828,-25.691999435424805 -133.5850067138672,-25.77899932861328 -133.5679931640625,-25.864999771118164 C-133.48199462890625,-26.31999969482422 -133.38999938964844,-26.774999618530273 -133.29800415039062,-27.224000930786133 C-133.22300720214844,-27.597999572753906 -133.1479949951172,-27.965999603271484 -133.06700134277344,-28.34000015258789 C-132.91700744628906,-29.054000854492188 -132.76199340820312,-29.76799964904785 -132.59500122070312,-30.47599983215332 C-132.5030059814453,-30.87299919128418 -132.41099548339844,-31.270999908447266 -132.31300354003906,-31.66200065612793 C-132.2209930419922,-32.082000732421875 -132.1179962158203,-32.49599838256836 -132.01400756835938,-32.9109992980957 C-131.95599365234375,-33.14699935913086 -131.8979949951172,-33.382999420166016 -131.8350067138672,-33.612998962402344 C-131.7030029296875,-34.137001037597656 -131.5709991455078,-34.66600036621094 -131.427001953125,-35.183998107910156 C-131.25999450683594,-35.8120002746582 -131.09300231933594,-36.43899917602539 -130.90899658203125,-37.06100082397461 C-130.75399780273438,-37.608001708984375 -130.59800720214844,-38.154998779296875 -130.43099975585938,-38.70199966430664 C-130.41900634765625,-38.75899887084961 -130.40199279785156,-38.816001892089844 -130.38499450683594,-38.874000549316406 C-130.2239990234375,-39.415000915527344 -130.0570068359375,-39.957000732421875 -129.88999938964844,-40.492000579833984 C-129.88999938964844,-40.50899887084961 -129.88499450683594,-40.5260009765625 -129.8730010986328,-40.53799819946289 C-129.52200317382812,-41.672000885009766 -129.1529998779297,-42.79999923706055 -128.7729949951172,-43.91699981689453 C-128.6179962158203,-44.37699890136719 -128.45599365234375,-44.83100128173828 -128.2949981689453,-45.2859992980957 C-128.2550048828125,-45.43000030517578 -128.20399475097656,-45.57400131225586 -128.14599609375,-45.71200180053711 C-127.96199798583984,-46.242000579833984 -127.76599884033203,-46.76599884033203 -127.57599639892578,-47.290000915527344 C-127.36900329589844,-47.847999572753906 -127.15599822998047,-48.40599822998047 -126.94300079345703,-48.95899963378906 C-126.49400329589844,-50.138999938964844 -126.02200317382812,-51.3129997253418 -125.5270004272461,-52.47600173950195 C-125.3949966430664,-52.792999267578125 -125.26200103759766,-53.10900115966797 -125.1240005493164,-53.42499923706055 C-124.96800231933594,-53.79899978637695 -124.80699920654297,-54.17399978637695 -124.63999938964844,-54.54199981689453 C-124.55400085449219,-54.76100158691406 -124.46199798583984,-54.96799850463867 -124.35800170898438,-55.180999755859375 C-124.1449966430664,-55.66999816894531 -123.9260025024414,-56.165000915527344 -123.69599914550781,-56.64899826049805 C-123.62699890136719,-56.816001892089844 -123.5469970703125,-56.983001708984375 -123.47200012207031,-57.14400100708008 C-123.18399810791016,-57.77199935913086 -122.88400268554688,-58.393001556396484 -122.58499908447266,-59.01499938964844 C-122.31999969482422,-59.573001861572266 -122.05000305175781,-60.125999450683594 -121.77400207519531,-60.67300033569336 C-121.63600158691406,-60.94900131225586 -121.50299835205078,-61.21900177001953 -121.35900115966797,-61.4900016784668 C-121.13400268554688,-61.93899917602539 -120.90499877929688,-62.38800048828125 -120.66899871826172,-62.83100128173828 C-119.67900085449219,-64.74199676513672 -118.63700103759766,-66.6240005493164 -117.54900360107422,-68.47799682617188 C-117.3239974975586,-68.86900329589844 -117.0999984741211,-69.25499725341797 -116.86399841308594,-69.64099884033203 C-115.9489974975586,-71.18299865722656 -114.9990005493164,-72.70800018310547 -114.01499938964844,-74.20500183105469 C-113.72100067138672,-74.65399932861328 -113.4209976196289,-75.10900115966797 -113.12200164794922,-75.55799865722656 C-113.0989990234375,-75.59300231933594 -113.08200073242188,-75.62699890136719 -113.05899810791016,-75.65599822998047 C-112.47799682617188,-76.51399993896484 -111.89600372314453,-77.36499786376953 -111.3030014038086,-78.21099853515625 C-111.10099792480469,-78.4990005493164 -110.9000015258789,-78.78099822998047 -110.69300079345703,-79.06300354003906 C-110.38800048828125,-79.5009994506836 -110.07099914550781,-79.93199920654297 -109.7490005493164,-80.36399841308594 C-109.44999694824219,-80.79000091552734 -109.13899993896484,-81.2040023803711 -108.81700134277344,-81.61900329589844 C-108.54100036621094,-81.99299621582031 -108.25800323486328,-82.36199951171875 -107.97599792480469,-82.7300033569336 C-107.26799774169922,-83.65699768066406 -106.5479965209961,-84.5780029296875 -105.80599975585938,-85.48200225830078 C-105.43800354003906,-85.93699645996094 -105.06900024414062,-86.39099884033203 -104.69499969482422,-86.83999633789062 C-104.33799743652344,-87.26599884033203 -103.98200225830078,-87.69200134277344 -103.625,-88.11199951171875 C-102.90599822998047,-88.95800018310547 -102.17400360107422,-89.79900360107422 -101.43699645996094,-90.62200164794922 C-101.09700012207031,-91.00800323486328 -100.75199890136719,-91.38700103759766 -100.40699768066406,-91.76699829101562 C-99.01399993896484,-93.29199981689453 -97.58599853515625,-94.78299713134766 -96.12999725341797,-96.22799682617188 C-95.73899841308594,-96.63099670410156 -95.34700012207031,-97.01699829101562 -94.94999694824219,-97.39700317382812 C-94.81199645996094,-97.54100036621094 -94.66799926757812,-97.67900085449219 -94.52400207519531,-97.81700134277344 C-94.052001953125,-98.27799987792969 -93.56900024414062,-98.73200225830078 -93.08499908447266,-99.18699645996094 C-92.46299743652344,-99.76799774169922 -91.83599853515625,-100.3489990234375 -91.2030029296875,-100.91899871826172 C-90.76000213623047,-101.3219985961914 -90.31099700927734,-101.7249984741211 -89.86199951171875,-102.11699676513672 C-89.10800170898438,-102.77899932861328 -88.35399627685547,-103.43499755859375 -87.58799743652344,-104.0739974975586 C-87.22000122070312,-104.38500213623047 -86.85099792480469,-104.69599914550781 -86.48300170898438,-104.99500274658203 C-86.36799621582031,-105.09300231933594 -86.25800323486328,-105.18499755859375 -86.14299774169922,-105.2770004272461 C-85.60800170898438,-105.72000122070312 -85.06700134277344,-106.15699768066406 -84.5199966430664,-106.58899688720703 C-84.51399993896484,-106.59500122070312 -84.50900268554688,-106.5999984741211 -84.49700164794922,-106.60600280761719 C-83.927001953125,-107.05500030517578 -83.35800170898438,-107.50499725341797 -82.78199768066406,-107.94200134277344 C-82.71900177001953,-107.99400329589844 -82.65599822998047,-108.04000091552734 -82.5979995727539,-108.08599853515625 C-82.1259994506836,-108.4489974975586 -81.65399932861328,-108.80500030517578 -81.18199920654297,-109.15599822998047 C-80.03099822998047,-110.01300048828125 -78.86699676513672,-110.8489990234375 -77.69300079345703,-111.66600036621094 C-77.35399627685547,-111.90799713134766 -77.01399993896484,-112.14399719238281 -76.67400360107422,-112.3740005493164 C-76.1449966430664,-112.73699951171875 -75.61599731445312,-113.09300231933594 -75.08000183105469,-113.44999694824219 C-74.5270004272461,-113.81300354003906 -73.9749984741211,-114.1760025024414 -73.41699981689453,-114.53299713134766 C-72.77799987792969,-114.947998046875 -72.13300323486328,-115.3499984741211 -71.48799896240234,-115.74700164794922 C-70.91200256347656,-116.10399627685547 -70.33100128173828,-116.46099853515625 -69.75,-116.80599975585938 C-68.86900329589844,-117.33499908447266 -67.97699737548828,-117.85299682617188 -67.0790023803711,-118.36000061035156 C-66.60700225830078,-118.63099670410156 -66.13500213623047,-118.89600372314453 -65.65699768066406,-119.16100311279297 C-65.62200164794922,-119.1780014038086 -65.58799743652344,-119.20099639892578 -65.55400085449219,-119.21800231933594 C-64.89800262451172,-119.58100128173828 -64.23500061035156,-119.93800354003906 -63.573001861572266,-120.28900146484375 C-55.1349983215332,-124.76200103759766 -46.16699981689453,-128.36500549316406 -36.78499984741211,-130.9949951171875 C-25.089000701904297,-134.27000427246094 -12.753000259399414,-136.0260009765625 -0.008999999612569809,-136.0260009765625 C2.1040000915527344,-136.0260009765625 4.204999923706055,-135.97999572753906 6.289000034332275,-135.87600708007812 C78.49400329589844,-132.58299255371094 136.0260009765625,-73.00800323486328 136.0260009765625,0.00800000037997961z"></path></g><g opacity="1" transform="matrix(1,0,0,1,1332.948974609375,1539.1070556640625)"><path fill="rgb(237,144,21)" fill-opacity="1" d=" M106.97200012207031,0 C106.97200012207031,59.08300018310547 59.08300018310547,106.9729995727539 0,106.9729995727539 C-26.7549991607666,106.9729995727539 -51.21500015258789,97.14399719238281 -69.97699737548828,80.90599822998047 C-69.98799896240234,80.90599822998047 -70,80.89399719238281 -70,80.88300323486328 C-92.64900207519531,61.27299880981445 -106.97200012207031,32.31700134277344 -106.97200012207031,0 C-106.97200012207031,-59.082000732421875 -59.07099914550781,-106.9729995727539 0,-106.9729995727539 C28.910999298095703,-106.9729995727539 55.14899826049805,-95.50499725341797 74.39199829101562,-76.85800170898438 C94.48400115966797,-57.41999816894531 106.97200012207031,-30.17099952697754 106.97200012207031,0z"></path></g><g opacity="1" transform="matrix(1,0,0,1,1335.241943359375,1541.2049560546875)"><path fill="rgb(252,172,43)" fill-opacity="1" d=" M104.67900085449219,-2.0989999771118164 C104.67900085449219,56.98400115966797 56.78900146484375,104.8740005493164 -2.2939999103546143,104.8740005493164 C-29.048999786376953,104.8740005493164 -53.507999420166016,95.04499816894531 -72.2699966430664,78.80699920654297 C-72.28099822998047,78.80699920654297 -72.29399871826172,78.79499816894531 -72.29399871826172,78.78399658203125 C-92.27100372314453,59.34600067138672 -104.67900085449219,32.17900085449219 -104.67900085449219,2.109999895095825 C-104.67900085449219,-56.972999572753906 -56.777000427246094,-104.8740005493164 2.2939999103546143,-104.8740005493164 C28.968000411987305,-104.8740005493164 53.36000061035156,-95.11399841308594 72.0989990234375,-78.95600128173828 C92.19100189208984,-59.518001556396484 104.67900085449219,-32.27000045776367 104.67900085449219,-2.0989999771118164z"></path></g></g><g style="display: block;" transform="matrix(1,0,0,1,0,0)" opacity="1"><g opacity="1" transform="matrix(1,0,0,1,1290.052978515625,924.906982421875)"><path fill="rgb(50,100,151)" fill-opacity="1" d=" M-1.2280000448226929,35.31999969482422 C-1.2280000448226929,35.31999969482422 1.25,35.319000244140625 1.25,35.319000244140625 C5.210000038146973,35.31800079345703 8.449000358581543,32.07699966430664 8.447999954223633,28.117000579833984 C8.447999954223633,28.117000579833984 8.430000305175781,-28.121999740600586 8.430000305175781,-28.121999740600586 C8.428999900817871,-32.082000732421875 5.188000202178955,-35.32099914550781 1.2280000448226929,-35.31999969482422 C1.2280000448226929,-35.31999969482422 -1.25,-35.319000244140625 -1.25,-35.319000244140625 C-5.210000038146973,-35.31800079345703 -8.449000358581543,-32.07699966430664 -8.447999954223633,-28.117000579833984 C-8.447999954223633,-28.117000579833984 -8.430000305175781,28.121999740600586 -8.430000305175781,28.121999740600586 C-8.428999900817871,32.082000732421875 -5.188000202178955,35.32099914550781 -1.2280000448226929,35.31999969482422z"></path></g><g opacity="1" transform="matrix(1,0,0,1,1290.0860595703125,1028.6009521484375)"><path fill="rgb(50,100,151)" fill-opacity="1" d=" M-1.2280000448226929,35.31999969482422 C-1.2280000448226929,35.31999969482422 1.25,35.319000244140625 1.25,35.319000244140625 C5.210000038146973,35.31800079345703 8.449000358581543,32.07699966430664 8.447999954223633,28.117000579833984 C8.447999954223633,28.117000579833984 8.430000305175781,-28.121999740600586 8.430000305175781,-28.121999740600586 C8.428999900817871,-32.082000732421875 5.188000202178955,-35.32099914550781 1.2280000448226929,-35.31999969482422 C1.2280000448226929,-35.31999969482422 -1.25,-35.319000244140625 -1.25,-35.319000244140625 C-5.210000038146973,-35.31800079345703 -8.449000358581543,-32.07699966430664 -8.447999954223633,-28.117000579833984 C-8.447999954223633,-28.117000579833984 -8.430000305175781,28.121999740600586 -8.430000305175781,28.121999740600586 C-8.428999900817871,32.082000732421875 -5.188000202178955,35.32099914550781 -1.2280000448226929,35.31999969482422z"></path></g><g opacity="1" transform="matrix(1,0,0,1,1041.93896484375,1231.3179931640625)"><path fill="rgb(80,227,194)" fill-opacity="1" d=" M242.94000244140625,-367.60198974609375 C242.94000244140625,-367.60198974609375 242.70899963378906,367.7550048828125 242.70899963378906,367.7550048828125 C242.69700622558594,406.7200012207031 210.80599975585938,438.59100341796875 171.84100341796875,438.5790100097656 C171.84100341796875,438.5790100097656 -172.11599731445312,438.47100830078125 -172.11599731445312,438.47100830078125 C-211.08099365234375,438.4590148925781 -242.95199584960938,406.5669860839844 -242.94000244140625,367.60198974609375 C-242.94000244140625,367.60198974609375 -242.70899963378906,-367.7550048828125 -242.70899963378906,-367.7550048828125 C-242.69700622558594,-406.72100830078125 -210.80599975585938,-438.59100341796875 -171.83999633789062,-438.5790100097656 C-171.83999633789062,-438.5790100097656 172.11500549316406,-438.47100830078125 172.11500549316406,-438.47100830078125 C211.08099365234375,-438.4590148925781 242.95199584960938,-406.5679931640625 242.94000244140625,-367.60198974609375z"></path></g><g opacity="1" transform="matrix(1,0,0,1,1041.93994140625,1231.3179931640625)"><path fill="rgb(50,100,151)" fill-opacity="1" d=" M172.11700439453125,444.1099853515625 C172.11700439453125,444.1099853515625 -171.83900451660156,444.218994140625 -171.83900451660156,444.218994140625 C-214.01300048828125,444.2309875488281 -248.33399963378906,409.9309997558594 -248.34800720214844,367.7560119628906 C-248.34800720214844,367.7560119628906 -248.5780029296875,-367.60101318359375 -248.5780029296875,-367.60101318359375 C-248.5919952392578,-409.77801513671875 -214.28500366210938,-444.08099365234375 -172.1179962158203,-444.11199951171875 C-172.1179962158203,-444.11199951171875 171.83799743652344,-444.218994140625 171.83799743652344,-444.218994140625 C214.01199340820312,-444.2309875488281 248.33299255371094,-409.9309997558594 248.3470001220703,-367.7560119628906 C248.3470001220703,-367.7560119628906 248.5780029296875,367.60101318359375 248.5780029296875,367.60101318359375 C248.58999633789062,405.7510070800781 220.52999877929688,437.47100830078125 183.95599365234375,443.19000244140625 C180.0989990234375,443.7929992675781 176.13999938964844,444.1080017089844 172.11700439453125,444.1099853515625z M-237.30099487304688,-367.60400390625 C-237.30099487304688,-367.60400390625 -237.0709991455078,367.75201416015625 -237.0709991455078,367.75201416015625 C-237.0590057373047,403.7080078125 -207.79800415039062,432.9530029296875 -171.84300231933594,432.94000244140625 C-171.84300231933594,432.94000244140625 172.11300659179688,432.8299865722656 172.11300659179688,432.8299865722656 C208.0760040283203,432.8160095214844 237.31199645996094,403.55999755859375 237.30099487304688,367.60400390625 C237.30099487304688,367.60400390625 237.07000732421875,-367.75201416015625 237.07000732421875,-367.75201416015625 C237.05799865722656,-403.7080078125 207.7969970703125,-432.9530029296875 171.8419952392578,-432.94000244140625 C171.8419952392578,-432.94000244140625 -172.11399841308594,-432.8330078125 -172.11399841308594,-432.8330078125 C-175.5469970703125,-432.8320007324219 -178.91700744628906,-432.5639953613281 -182.20700073242188,-432.04998779296875 C-213.38499450683594,-427.17498779296875 -237.31100463867188,-400.12701416015625 -237.30099487304688,-367.60400390625z"></path></g></g><g style="display: block;" transform="matrix(1.1999990940093994,0,0,1.1999990940093994,-541.1885986328125,-232.47216796875)" opacity="1"><g opacity="1" transform="matrix(1,0,0,1,1045.947998046875,1102.365966796875)"><path fill="rgb(255,255,255)" fill-opacity="1" d=" M190.25599670410156,118.95700073242188 C190.25599670410156,118.95700073242188 -190.25599670410156,118.95700073242188 -190.25599670410156,118.95700073242188 C-199.9010009765625,118.95700073242188 -207.7209930419922,111.13700103759766 -207.7209930419922,101.49199676513672 C-207.7209930419922,101.49199676513672 -207.7209930419922,-101.49199676513672 -207.7209930419922,-101.49199676513672 C-207.7209930419922,-111.13700103759766 -199.9010009765625,-118.95700073242188 -190.25599670410156,-118.95700073242188 C-190.25599670410156,-118.95700073242188 190.25599670410156,-118.95700073242188 190.25599670410156,-118.95700073242188 C199.9010009765625,-118.95700073242188 207.7209930419922,-111.13700103759766 207.7209930419922,-101.49199676513672 C207.7209930419922,-101.49199676513672 207.7209930419922,101.49199676513672 207.7209930419922,101.49199676513672 C207.7209930419922,111.13700103759766 199.9010009765625,118.95700073242188 190.25599670410156,118.95700073242188z"></path></g><g opacity="1" transform="matrix(1,0,0,1,0,0)"><g opacity="1" transform="matrix(1,0,0,1,950.8829956054688,1107.093994140625)"><path fill="rgb(80,227,194)" fill-opacity="1" d=" M82.80500030517578,0 C82.80500030517578,28.974000930786133 67.91999816894531,54.48400115966797 45.3650016784668,69.28099822998047 C32.3390007019043,77.83599853515625 16.756000518798828,82.80500030517578 0,82.80500030517578 C-45.72999954223633,82.80500030517578 -82.80500030517578,45.72999954223633 -82.80500030517578,0 C-82.80500030517578,-4.195000171661377 -82.49500274658203,-8.321999549865723 -81.88600158691406,-12.34000015258789 C-75.93199920654297,-52.21500015258789 -41.53499984741211,-82.80500030517578 0,-82.80500030517578 C14.630999565124512,-82.80500030517578 28.37700080871582,-79.00800323486328 40.29600143432617,-72.35700225830078 C65.66200256347656,-58.20199966430664 82.80500030517578,-31.099000930786133 82.80500030517578,0z"></path></g><g opacity="1" transform="matrix(1,0,0,1,992.2860107421875,1105.5560302734375)"><path fill="rgb(115,173,244)" fill-opacity="1" d=" M41.402000427246094,1.5390000343322754 C41.402000427246094,30.51300048828125 26.517000198364258,56.02199935913086 3.9619998931884766,70.81900024414062 C3.9619998931884766,70.81900024414062 3.9619998931884766,70.80799865722656 3.9619998931884766,70.80799865722656 C3.9619998931884766,70.80799865722656 -41.402000427246094,1.5390000343322754 -41.402000427246094,1.5390000343322754 C-41.402000427246094,1.5390000343322754 -1.1069999933242798,-70.81900024414062 -1.1069999933242798,-70.81900024414062 C24.259000778198242,-56.66400146484375 41.402000427246094,-29.559999465942383 41.402000427246094,1.5390000343322754z"></path></g><g opacity="1" transform="matrix(1,0,0,1,932.1630249023438,1142.3260498046875)"><path fill="rgb(79,143,219)" fill-opacity="1" d=" M64.08499908447266,34.0369987487793 C64.08499908447266,34.0369987487793 64.08499908447266,34.04800033569336 64.08499908447266,34.04800033569336 C51.058998107910156,42.60300064086914 35.47600173950195,47.571998596191406 18.719999313354492,47.571998596191406 C-27.010000228881836,47.571998596191406 -64.08499908447266,10.498000144958496 -64.08499908447266,-35.231998443603516 C-64.08499908447266,-39.426998138427734 -63.775001525878906,-43.55400085449219 -63.16600036621094,-47.571998596191406 C-63.16600036621094,-47.571998596191406 18.719999313354492,-35.231998443603516 18.719999313354492,-35.231998443603516 C18.719999313354492,-35.231998443603516 64.08499908447266,34.0369987487793 64.08499908447266,34.0369987487793z"></path></g></g><g opacity="1" transform="matrix(1,0,0,1,1138.6510009765625,1036.98095703125)"><path fill="rgb(91,151,239)" fill-opacity="1" d=" M67.13800048828125,12.690999984741211 C67.13800048828125,12.690999984741211 -67.13800048828125,12.690999984741211 -67.13800048828125,12.690999984741211 C-74.11799621582031,12.690999984741211 -79.83000183105469,6.980000019073486 -79.83000183105469,0 C-79.83000183105469,0 -79.83000183105469,0 -79.83000183105469,0 C-79.83000183105469,-6.980000019073486 -74.11799621582031,-12.690999984741211 -67.13800048828125,-12.690999984741211 C-67.13800048828125,-12.690999984741211 67.13800048828125,-12.690999984741211 67.13800048828125,-12.690999984741211 C74.11799621582031,-12.690999984741211 79.83000183105469,-6.980000019073486 79.83000183105469,0 C79.83000183105469,0 79.83000183105469,0 79.83000183105469,0 C79.83000183105469,6.980000019073486 74.11799621582031,12.690999984741211 67.13800048828125,12.690999984741211z"></path></g><g opacity="1" transform="matrix(1,0,0,1,1138.6510009765625,1082.06298828125)"><path fill="rgb(236,243,254)" fill-opacity="1" d=" M67.13800048828125,12.690999984741211 C67.13800048828125,12.690999984741211 -67.13800048828125,12.690999984741211 -67.13800048828125,12.690999984741211 C-74.11799621582031,12.690999984741211 -79.83000183105469,6.980000019073486 -79.83000183105469,0 C-79.83000183105469,0 -79.83000183105469,0 -79.83000183105469,0 C-79.83000183105469,-6.980000019073486 -74.11799621582031,-12.690999984741211 -67.13800048828125,-12.690999984741211 C-67.13800048828125,-12.690999984741211 67.13800048828125,-12.690999984741211 67.13800048828125,-12.690999984741211 C74.11799621582031,-12.690999984741211 79.83000183105469,-6.980000019073486 79.83000183105469,0 C79.83000183105469,0 79.83000183105469,0 79.83000183105469,0 C79.83000183105469,6.980000019073486 74.11799621582031,12.690999984741211 67.13800048828125,12.690999984741211z"></path></g><g opacity="1" transform="matrix(1,0,0,1,1138.6510009765625,1127.14501953125)"><path fill="rgb(236,243,254)" fill-opacity="1" d=" M67.13800048828125,12.690999984741211 C67.13800048828125,12.690999984741211 -67.13800048828125,12.690999984741211 -67.13800048828125,12.690999984741211 C-74.11799621582031,12.690999984741211 -79.83000183105469,6.980000019073486 -79.83000183105469,0 C-79.83000183105469,0 -79.83000183105469,0 -79.83000183105469,0 C-79.83000183105469,-6.980000019073486 -74.11799621582031,-12.690999984741211 -67.13800048828125,-12.690999984741211 C-67.13800048828125,-12.690999984741211 67.13800048828125,-12.690999984741211 67.13800048828125,-12.690999984741211 C74.11799621582031,-12.690999984741211 79.83000183105469,-6.980000019073486 79.83000183105469,0 C79.83000183105469,0 79.83000183105469,0 79.83000183105469,0 C79.83000183105469,6.980000019073486 74.11799621582031,12.690999984741211 67.13800048828125,12.690999984741211z"></path></g><g opacity="1" transform="matrix(1,0,0,1,1138.6510009765625,1172.22705078125)"><path fill="rgb(236,243,254)" fill-opacity="1" d=" M67.13800048828125,12.690999984741211 C67.13800048828125,12.690999984741211 -67.13800048828125,12.690999984741211 -67.13800048828125,12.690999984741211 C-74.11799621582031,12.690999984741211 -79.83000183105469,6.980000019073486 -79.83000183105469,0 C-79.83000183105469,0 -79.83000183105469,0 -79.83000183105469,0 C-79.83000183105469,-6.980000019073486 -74.11799621582031,-12.690999984741211 -67.13800048828125,-12.690999984741211 C-67.13800048828125,-12.690999984741211 67.13800048828125,-12.690999984741211 67.13800048828125,-12.690999984741211 C74.11799621582031,-12.690999984741211 79.83000183105469,-6.980000019073486 79.83000183105469,0 C79.83000183105469,0 79.83000183105469,0 79.83000183105469,0 C79.83000183105469,6.980000019073486 74.11799621582031,12.690999984741211 67.13800048828125,12.690999984741211z"></path></g></g><g style="display: block;" transform="matrix(1.1999990940093994,0,0,1.1999990940093994,43.8114013671875,-152.11541748046875)" opacity="1"><g opacity="1" transform="matrix(1,0,0,1,1045.947998046875,910.5809936523438)"><path fill="rgb(255,255,255)" fill-opacity="1" d=" M199.42999267578125,61.27799987792969 C199.42999267578125,61.27799987792969 -199.42999267578125,61.27799987792969 -199.42999267578125,61.27799987792969 C-203.99000549316406,61.27799987792969 -207.7209930419922,57.547000885009766 -207.7209930419922,52.98699951171875 C-207.7209930419922,52.98699951171875 -207.7209930419922,-52.98699951171875 -207.7209930419922,-52.98699951171875 C-207.7209930419922,-57.547000885009766 -203.99000549316406,-61.27799987792969 -199.42999267578125,-61.27799987792969 C-199.42999267578125,-61.27799987792969 199.42999267578125,-61.27799987792969 199.42999267578125,-61.27799987792969 C203.99000549316406,-61.27799987792969 207.7209930419922,-57.547000885009766 207.7209930419922,-52.98699951171875 C207.7209930419922,-52.98699951171875 207.7209930419922,52.98699951171875 207.7209930419922,52.98699951171875 C207.7209930419922,57.547000885009766 203.99000549316406,61.27799987792969 199.42999267578125,61.27799987792969z"></path></g><g opacity="1" transform="matrix(1,0,0,1,0,0)"><g opacity="1" transform="matrix(1,0,0,1,893.2750244140625,912.4509887695312)"><path fill="rgb(79,143,219)" fill-opacity="1" d=" M33.05799865722656,1.6410000324249268 C32.152000427246094,19.89900016784668 16.617000579833984,33.9640007019043 -1.6410000324249268,33.05799865722656 C-19.89900016784668,32.152000427246094 -33.9640007019043,16.617000579833984 -33.05799865722656,-1.6410000324249268 C-32.152000427246094,-19.898000717163086 -16.617000579833984,-33.9640007019043 1.6410000324249268,-33.05799865722656 C19.89900016784668,-32.152000427246094 33.9640007019043,-16.617000579833984 33.05799865722656,1.6410000324249268z"></path></g><g opacity="1" transform="matrix(1,0,0,1,893.7009887695312,913.1439819335938)"><path stroke-linecap="butt" stroke-linejoin="miter" fill-opacity="0" stroke-miterlimit="10" stroke="rgb(255,255,255)" stroke-opacity="1" stroke-width="10" d=" M-21.843000411987305,0.824999988079071 C-21.843000411987305,0.824999988079071 -9.694000244140625,14.213000297546387 -9.694000244140625,14.213000297546387 C-9.694000244140625,14.213000297546387 21.843000411987305,-14.213000297546387 21.843000411987305,-14.213000297546387"></path></g></g><g opacity="1" transform="matrix(1,0,0,1,1071.5880126953125,889.427001953125)"><path fill="rgb(236,243,254)" fill-opacity="1" d=" M107.64600372314453,9.736000061035156 C107.64600372314453,9.736000061035156 -107.64600372314453,9.736000061035156 -107.64600372314453,9.736000061035156 C-113.0009994506836,9.736000061035156 -117.38200378417969,5.355000019073486 -117.38200378417969,0 C-117.38200378417969,0 -117.38200378417969,0 -117.38200378417969,0 C-117.38200378417969,-5.355000019073486 -113.0009994506836,-9.736000061035156 -107.64600372314453,-9.736000061035156 C-107.64600372314453,-9.736000061035156 107.64600372314453,-9.736000061035156 107.64600372314453,-9.736000061035156 C113.0009994506836,-9.736000061035156 117.38200378417969,-5.355000019073486 117.38200378417969,0 C117.38200378417969,0 117.38200378417969,0 117.38200378417969,0 C117.38200378417969,5.355000019073486 113.0009994506836,9.736000061035156 107.64600372314453,9.736000061035156z"></path></g><g opacity="1" transform="matrix(1,0,0,1,1050.3470458984375,931.7360229492188)"><path fill="rgb(236,243,254)" fill-opacity="1" d=" M86.40499877929688,9.736000061035156 C86.40499877929688,9.736000061035156 -86.40499877929688,9.736000061035156 -86.40499877929688,9.736000061035156 C-91.76000213623047,9.736000061035156 -96.14099884033203,5.355000019073486 -96.14099884033203,0 C-96.14099884033203,0 -96.14099884033203,0 -96.14099884033203,0 C-96.14099884033203,-5.355000019073486 -91.76000213623047,-9.736000061035156 -86.40499877929688,-9.736000061035156 C-86.40499877929688,-9.736000061035156 86.40499877929688,-9.736000061035156 86.40499877929688,-9.736000061035156 C91.76000213623047,-9.736000061035156 96.14099884033203,-5.355000019073486 96.14099884033203,0 C96.14099884033203,0 96.14099884033203,0 96.14099884033203,0 C96.14099884033203,5.355000019073486 91.76000213623047,9.736000061035156 86.40499877929688,9.736000061035156z"></path></g></g><g style="display: block;" transform="matrix(1.1999990940093994,0,0,1.1999990940093994,26.8114013671875,-251.7403564453125)" opacity="1"><g opacity="1" transform="matrix(1,0,0,1,1045.947998046875,1338.7080078125)"><path fill="rgb(255,255,255)" fill-opacity="1" d=" M188.38499450683594,109.00299835205078 C188.38499450683594,109.00299835205078 -188.38499450683594,109.00299835205078 -188.38499450683594,109.00299835205078 C-199.06399536132812,109.00299835205078 -207.7209930419922,100.34700012207031 -207.7209930419922,89.66799926757812 C-207.7209930419922,89.66799926757812 -207.7209930419922,-89.66799926757812 -207.7209930419922,-89.66799926757812 C-207.7209930419922,-100.34700012207031 -199.06399536132812,-109.00299835205078 -188.38499450683594,-109.00299835205078 C-188.38499450683594,-109.00299835205078 188.38499450683594,-109.00299835205078 188.38499450683594,-109.00299835205078 C199.06399536132812,-109.00299835205078 207.7209930419922,-100.34700012207031 207.7209930419922,-89.66799926757812 C207.7209930419922,-89.66799926757812 207.7209930419922,89.66799926757812 207.7209930419922,89.66799926757812 C207.7209930419922,100.34700012207031 199.06399536132812,109.00299835205078 188.38499450683594,109.00299835205078z"></path></g><g opacity="1" transform="matrix(1,0,0,1,1038.5699462890625,1339.2679443359375)"><path fill="rgb(115,173,244)" fill-opacity="1" d=" M171.63400268554688,82.64299774169922 C171.63400268554688,82.64299774169922 -171.63400268554688,82.64299774169922 -171.63400268554688,82.64299774169922 C-173.41200256347656,82.64299774169922 -174.8520050048828,81.60299682617188 -174.8520050048828,80.31999969482422 C-174.8520050048828,80.31999969482422 -174.8520050048828,-80.31999969482422 -174.8520050048828,-80.31999969482422 C-174.8520050048828,-81.60299682617188 -173.41200256347656,-82.64299774169922 -171.63400268554688,-82.64299774169922 C-169.8560028076172,-82.64299774169922 -168.4149932861328,-81.60299682617188 -168.4149932861328,-80.31999969482422 C-168.4149932861328,-80.31999969482422 -168.4149932861328,77.99700164794922 -168.4149932861328,77.99700164794922 C-168.4149932861328,77.99700164794922 171.63400268554688,77.99700164794922 171.63400268554688,77.99700164794922 C173.41200256347656,77.99700164794922 174.8520050048828,79.03700256347656 174.8520050048828,80.31999969482422 C174.8520050048828,81.60299682617188 173.41200256347656,82.64299774169922 171.63400268554688,82.64299774169922z"></path></g><g opacity="1" transform="matrix(1,0,0,1,1038.571044921875,1334.178955078125)"><path fill="rgb(115,173,244)" fill-opacity="1" d=" M-171.63699340820312,56.090999603271484 C-172.30999755859375,56.090999603271484 -172.98899841308594,55.93899917602539 -173.5679931640625,55.625 C-174.98899841308594,54.854000091552734 -175.27499389648438,53.39799880981445 -174.20700073242188,52.37200164794922 C-174.20700073242188,52.37200164794922 -120.30699920654297,0.5960000157356262 -120.30699920654297,0.5960000157356262 C-119.75599670410156,0.06700000166893005 -118.91999816894531,-0.2669999897480011 -118.00700378417969,-0.3230000138282776 C-117.09200286865234,-0.3779999911785126 -116.19100189208984,-0.15199999511241913 -115.5250015258789,0.3019999861717224 C-115.5250015258789,0.3019999861717224 -79.97799682617188,24.511999130249023 -79.97799682617188,24.511999130249023 C-79.97799682617188,24.511999130249023 -17.18899917602539,-28.722000122070312 -17.18899917602539,-28.722000122070312 C-16.590999603271484,-29.229000091552734 -15.720999717712402,-29.525999069213867 -14.798999786376953,-29.538999557495117 C-13.876999855041504,-29.55900001525879 -12.991000175476074,-29.277000427246094 -12.366999626159668,-28.78700065612793 C-12.366999626159668,-28.78700065612793 36.7140007019043,9.805999755859375 36.7140007019043,9.805999755859375 C36.7140007019043,9.805999755859375 116.4990005493164,-55.30699920654297 116.4990005493164,-55.30699920654297 C117.40399932861328,-56.04600143432617 118.85900115966797,-56.29199981689453 120.12300109863281,-55.91999816894531 C120.12300109863281,-55.91999816894531 172.8470001220703,-40.430999755859375 172.8470001220703,-40.430999755859375 C174.49400329589844,-39.946998596191406 175.28399658203125,-38.59299850463867 174.61399841308594,-37.40399932861328 C173.94400024414062,-36.215999603271484 172.06700134277344,-35.64400100708008 170.4199981689453,-36.12799835205078 C170.4199981689453,-36.12799835205078 119.80899810791016,-50.994998931884766 119.80899810791016,-50.994998931884766 C119.80899810791016,-50.994998931884766 39.16999816894531,14.8149995803833 39.16999816894531,14.8149995803833 C38.566001892089844,15.307999610900879 37.70000076293945,15.593000411987305 36.78900146484375,15.598999977111816 C35.86199951171875,15.572999954223633 35.00400161743164,15.331000328063965 34.38800048828125,14.847000122070312 C34.38800048828125,14.847000122070312 -14.64799976348877,-23.708999633789062 -14.64799976348877,-23.708999633789062 C-14.64799976348877,-23.708999633789062 -77.27200317382812,29.38599967956543 -77.27200317382812,29.38599967956543 C-77.84400177001953,29.871000289916992 -78.66699981689453,30.163999557495117 -79.5479965209961,30.198999404907227 C-80.42900085449219,30.229999542236328 -81.29000091552734,30.006999969482422 -81.93199920654297,29.56999969482422 C-81.93199920654297,29.56999969482422 -117.3239974975586,5.465000152587891 -117.3239974975586,5.465000152587891 C-117.3239974975586,5.465000152587891 -169.06100463867188,55.16400146484375 -169.06100463867188,55.16400146484375 C-169.6929931640625,55.770999908447266 -170.65899658203125,56.090999603271484 -171.63699340820312,56.090999603271484z"></path></g><g opacity="1" transform="matrix(1,0,0,1,920.9910278320312,1337.166015625)"><path fill="rgb(90,155,219)" fill-opacity="1" d=" M8.276000022888184,0 C8.276000022888184,3.2990000247955322 4.571000099182129,5.973999977111816 0,5.973999977111816 C-4.571000099182129,5.973999977111816 -8.276000022888184,3.2990000247955322 -8.276000022888184,0 C-8.276000022888184,-3.2990000247955322 -4.571000099182129,-5.973999977111816 0,-5.973999977111816 C4.571000099182129,-5.973999977111816 8.276000022888184,-3.2990000247955322 8.276000022888184,0z"></path></g><g opacity="1" transform="matrix(1,0,0,1,958.541015625,1360.9520263671875)"><path fill="rgb(90,155,219)" fill-opacity="1" d=" M8.276000022888184,0 C8.276000022888184,3.2990000247955322 4.571000099182129,5.973999977111816 0,5.973999977111816 C-4.571000099182129,5.973999977111816 -8.276000022888184,3.2990000247955322 -8.276000022888184,0 C-8.276000022888184,-3.2990000247955322 -4.571000099182129,-5.973999977111816 0,-5.973999977111816 C4.571000099182129,-5.973999977111816 8.276000022888184,-3.2990000247955322 8.276000022888184,0z"></path></g><g opacity="1" transform="matrix(1,0,0,1,1023.8319702148438,1307.626953125)"><path fill="rgb(90,155,219)" fill-opacity="1" d=" M8.276000022888184,0 C8.276000022888184,3.2990000247955322 4.571000099182129,5.973999977111816 0,5.973999977111816 C-4.571000099182129,5.973999977111816 -8.276000022888184,3.2990000247955322 -8.276000022888184,0 C-8.276000022888184,-3.2990000247955322 -4.571000099182129,-5.973999977111816 0,-5.973999977111816 C4.571000099182129,-5.973999977111816 8.276000022888184,-3.2990000247955322 8.276000022888184,0z"></path></g><g opacity="1" transform="matrix(1,0,0,1,1075.176025390625,1346.3489990234375)"><path fill="rgb(90,155,219)" fill-opacity="1" d=" M8.276000022888184,0 C8.276000022888184,3.2990000247955322 4.571000099182129,5.973999977111816 0,5.973999977111816 C-4.571000099182129,5.973999977111816 -8.276000022888184,3.2990000247955322 -8.276000022888184,0 C-8.276000022888184,-3.2990000247955322 -4.571000099182129,-5.973999977111816 0,-5.973999977111816 C4.571000099182129,-5.973999977111816 8.276000022888184,-3.2990000247955322 8.276000022888184,0z"></path></g><g opacity="1" transform="matrix(1,0,0,1,1157.634033203125,1280.9639892578125)"><path fill="rgb(90,155,219)" fill-opacity="1" d=" M8.276000022888184,0 C8.276000022888184,3.2990000247955322 4.571000099182129,5.973999977111816 0,5.973999977111816 C-4.571000099182129,5.973999977111816 -8.276000022888184,3.2990000247955322 -8.276000022888184,0 C-8.276000022888184,-3.2990000247955322 -4.571000099182129,-5.973999977111816 0,-5.973999977111816 C4.571000099182129,-5.973999977111816 8.276000022888184,-3.2990000247955322 8.276000022888184,0z"></path></g><g opacity="1" transform="matrix(1,0,0,1,1210.2039794921875,1296.1209716796875)"><path fill="rgb(90,155,219)" fill-opacity="1" d=" M8.276000022888184,0 C8.276000022888184,3.2990000247955322 4.571000099182129,5.973999977111816 0,5.973999977111816 C-4.571000099182129,5.973999977111816 -8.276000022888184,3.2990000247955322 -8.276000022888184,0 C-8.276000022888184,-3.2990000247955322 -4.571000099182129,-5.973999977111816 0,-5.973999977111816 C4.571000099182129,-5.973999977111816 8.276000022888184,-3.2990000247955322 8.276000022888184,0z"></path></g><g opacity="1" transform="matrix(1,0,0,1,927.3510131835938,1263.4840087890625)"><path fill="rgb(80,227,194)" fill-opacity="1" d=" M33.18199920654297,4.535999774932861 C33.18199920654297,4.535999774932861 -33.18199920654297,4.535999774932861 -33.18199920654297,4.535999774932861 C-36.63800048828125,4.535999774932861 -39.465999603271484,2.494999885559082 -39.465999603271484,0 C-39.465999603271484,0 -39.465999603271484,0 -39.465999603271484,0 C-39.465999603271484,-2.494999885559082 -36.63800048828125,-4.535999774932861 -33.18199920654297,-4.535999774932861 C-33.18199920654297,-4.535999774932861 33.18199920654297,-4.535999774932861 33.18199920654297,-4.535999774932861 C36.63800048828125,-4.535999774932861 39.465999603271484,-2.494999885559082 39.465999603271484,0 C39.465999603271484,0 39.465999603271484,0 39.465999603271484,0 C39.465999603271484,2.494999885559082 36.63800048828125,4.535999774932861 33.18199920654297,4.535999774932861z"></path></g><g opacity="1" transform="matrix(1,0,0,1,944.2100219726562,1277.4239501953125)"><path fill="rgb(236,243,254)" fill-opacity="1" d=" M50.04100036621094,4.535999774932861 C50.04100036621094,4.535999774932861 -50.04100036621094,4.535999774932861 -50.04100036621094,4.535999774932861 C-53.49700164794922,4.535999774932861 -56.32500076293945,2.494999885559082 -56.32500076293945,0 C-56.32500076293945,0 -56.32500076293945,0 -56.32500076293945,0 C-56.32500076293945,-2.494999885559082 -53.49700164794922,-4.535999774932861 -50.04100036621094,-4.535999774932861 C-50.04100036621094,-4.535999774932861 50.04100036621094,-4.535999774932861 50.04100036621094,-4.535999774932861 C53.49700164794922,-4.535999774932861 56.32500076293945,-2.494999885559082 56.32500076293945,0 C56.32500076293945,0 56.32500076293945,0 56.32500076293945,0 C56.32500076293945,2.494999885559082 53.49700164794922,4.535999774932861 50.04100036621094,4.535999774932861z"></path></g></g><g style="display: block;" transform="matrix(1.1999990940093994,0,0,1.1999990940093994,-509.1885986328125,-231.839599609375)" opacity="1"><g opacity="1" transform="matrix(1,0,0,1,1045.947998046875,1519.2049560546875)"><path fill="rgb(255,255,255)" fill-opacity="1" d=" M199.42999267578125,61.27799987792969 C199.42999267578125,61.27799987792969 -199.42999267578125,61.27799987792969 -199.42999267578125,61.27799987792969 C-203.99000549316406,61.27799987792969 -207.7209930419922,57.547000885009766 -207.7209930419922,52.98699951171875 C-207.7209930419922,52.98699951171875 -207.7209930419922,-52.98699951171875 -207.7209930419922,-52.98699951171875 C-207.7209930419922,-57.547000885009766 -203.99000549316406,-61.27799987792969 -199.42999267578125,-61.27799987792969 C-199.42999267578125,-61.27799987792969 199.42999267578125,-61.27799987792969 199.42999267578125,-61.27799987792969 C203.99000549316406,-61.27799987792969 207.7209930419922,-57.547000885009766 207.7209930419922,-52.98699951171875 C207.7209930419922,-52.98699951171875 207.7209930419922,52.98699951171875 207.7209930419922,52.98699951171875 C207.7209930419922,57.547000885009766 203.99000549316406,61.27799987792969 199.42999267578125,61.27799987792969z"></path></g><g opacity="1" transform="matrix(1,0,0,1,868.7139892578125,1519.4169921875)"><path fill="rgb(236,243,254)" fill-opacity="1" d=" M10.01550006866455,-44.80649948120117 C10.01550006866455,-44.80649948120117 10.01550006866455,44.80649948120117 10.01550006866455,44.80649948120117 C10.01550006866455,44.80649948120117 -10.01550006866455,44.80649948120117 -10.01550006866455,44.80649948120117 C-10.01550006866455,44.80649948120117 -10.01550006866455,-44.80649948120117 -10.01550006866455,-44.80649948120117 C-10.01550006866455,-44.80649948120117 10.01550006866455,-44.80649948120117 10.01550006866455,-44.80649948120117z"></path></g><g opacity="1" transform="matrix(1,0,0,1,901.239990234375,1519.4169921875)"><path fill="rgb(236,243,254)" fill-opacity="1" d=" M10.01550006866455,-44.80649948120117 C10.01550006866455,-44.80649948120117 10.01550006866455,44.80649948120117 10.01550006866455,44.80649948120117 C10.01550006866455,44.80649948120117 -10.01550006866455,44.80649948120117 -10.01550006866455,44.80649948120117 C-10.01550006866455,44.80649948120117 -10.01550006866455,-44.80649948120117 -10.01550006866455,-44.80649948120117 C-10.01550006866455,-44.80649948120117 10.01550006866455,-44.80649948120117 10.01550006866455,-44.80649948120117z"></path></g><g opacity="1" transform="matrix(1,0,0,1,933.7670288085938,1519.4169921875)"><path fill="rgb(236,243,254)" fill-opacity="1" d=" M10.01550006866455,-44.80649948120117 C10.01550006866455,-44.80649948120117 10.01550006866455,44.80649948120117 10.01550006866455,44.80649948120117 C10.01550006866455,44.80649948120117 -10.01550006866455,44.80649948120117 -10.01550006866455,44.80649948120117 C-10.01550006866455,44.80649948120117 -10.01550006866455,-44.80649948120117 -10.01550006866455,-44.80649948120117 C-10.01550006866455,-44.80649948120117 10.01550006866455,-44.80649948120117 10.01550006866455,-44.80649948120117z"></path></g><g opacity="1" transform="matrix(1,0,0,1,966.2930297851562,1519.4169921875)"><path fill="rgb(236,243,254)" fill-opacity="1" d=" M10.01550006866455,-44.80649948120117 C10.01550006866455,-44.80649948120117 10.01550006866455,44.80649948120117 10.01550006866455,44.80649948120117 C10.01550006866455,44.80649948120117 -10.01550006866455,44.80649948120117 -10.01550006866455,44.80649948120117 C-10.01550006866455,44.80649948120117 -10.01550006866455,-44.80649948120117 -10.01550006866455,-44.80649948120117 C-10.01550006866455,-44.80649948120117 10.01550006866455,-44.80649948120117 10.01550006866455,-44.80649948120117z"></path></g><g opacity="1" transform="matrix(1,0,0,1,998.8189697265625,1519.4169921875)"><path fill="rgb(236,243,254)" fill-opacity="1" d=" M10.01550006866455,-44.80649948120117 C10.01550006866455,-44.80649948120117 10.01550006866455,44.80649948120117 10.01550006866455,44.80649948120117 C10.01550006866455,44.80649948120117 -10.01550006866455,44.80649948120117 -10.01550006866455,44.80649948120117 C-10.01550006866455,44.80649948120117 -10.01550006866455,-44.80649948120117 -10.01550006866455,-44.80649948120117 C-10.01550006866455,-44.80649948120117 10.01550006866455,-44.80649948120117 10.01550006866455,-44.80649948120117z"></path></g><g opacity="1" transform="matrix(1,0,0,1,1031.344970703125,1519.4169921875)"><path fill="rgb(236,243,254)" fill-opacity="1" d=" M10.01550006866455,-44.80649948120117 C10.01550006866455,-44.80649948120117 10.01550006866455,44.80649948120117 10.01550006866455,44.80649948120117 C10.01550006866455,44.80649948120117 -10.01550006866455,44.80649948120117 -10.01550006866455,44.80649948120117 C-10.01550006866455,44.80649948120117 -10.01550006866455,-44.80649948120117 -10.01550006866455,-44.80649948120117 C-10.01550006866455,-44.80649948120117 10.01550006866455,-44.80649948120117 10.01550006866455,-44.80649948120117z"></path></g><g opacity="1" transform="matrix(1,0,0,1,1063.8719482421875,1519.4169921875)"><path fill="rgb(236,243,254)" fill-opacity="1" d=" M10.01550006866455,-44.80649948120117 C10.01550006866455,-44.80649948120117 10.01550006866455,44.80649948120117 10.01550006866455,44.80649948120117 C10.01550006866455,44.80649948120117 -10.01550006866455,44.80649948120117 -10.01550006866455,44.80649948120117 C-10.01550006866455,44.80649948120117 -10.01550006866455,-44.80649948120117 -10.01550006866455,-44.80649948120117 C-10.01550006866455,-44.80649948120117 10.01550006866455,-44.80649948120117 10.01550006866455,-44.80649948120117z"></path></g><g opacity="1" transform="matrix(1,0,0,1,868.7139892578125,1533.0240478515625)"><path fill="rgb(208,2,27)" fill-opacity="1" d=" M10.01550006866455,-31.19849967956543 C10.01550006866455,-31.19849967956543 10.01550006866455,31.19849967956543 10.01550006866455,31.19849967956543 C10.01550006866455,31.19849967956543 -10.01550006866455,31.19849967956543 -10.01550006866455,31.19849967956543 C-10.01550006866455,31.19849967956543 -10.01550006866455,-31.19849967956543 -10.01550006866455,-31.19849967956543 C-10.01550006866455,-31.19849967956543 10.01550006866455,-31.19849967956543 10.01550006866455,-31.19849967956543z"></path></g><g opacity="1" transform="matrix(1,0,0,1,901.239990234375,1539.6619873046875)"><path fill="rgb(208,2,27)" fill-opacity="1" d=" M10.01550006866455,-24.56049919128418 C10.01550006866455,-24.56049919128418 10.01550006866455,24.56049919128418 10.01550006866455,24.56049919128418 C10.01550006866455,24.56049919128418 -10.01550006866455,24.56049919128418 -10.01550006866455,24.56049919128418 C-10.01550006866455,24.56049919128418 -10.01550006866455,-24.56049919128418 -10.01550006866455,-24.56049919128418 C-10.01550006866455,-24.56049919128418 10.01550006866455,-24.56049919128418 10.01550006866455,-24.56049919128418z"></path></g><g opacity="1" transform="matrix(1,0,0,1,933.7670288085938,1528.8759765625)"><path fill="rgb(208,2,27)" fill-opacity="1" d=" M10.01550006866455,-35.34749984741211 C10.01550006866455,-35.34749984741211 10.01550006866455,35.34749984741211 10.01550006866455,35.34749984741211 C10.01550006866455,35.34749984741211 -10.01550006866455,35.34749984741211 -10.01550006866455,35.34749984741211 C-10.01550006866455,35.34749984741211 -10.01550006866455,-35.34749984741211 -10.01550006866455,-35.34749984741211 C-10.01550006866455,-35.34749984741211 10.01550006866455,-35.34749984741211 10.01550006866455,-35.34749984741211z"></path></g><g opacity="1" transform="matrix(1,0,0,1,966.2930297851562,1535.0159912109375)"><path fill="rgb(208,2,27)" fill-opacity="1" d=" M10.01550006866455,-29.207500457763672 C10.01550006866455,-29.207500457763672 10.01550006866455,29.207500457763672 10.01550006866455,29.207500457763672 C10.01550006866455,29.207500457763672 -10.01550006866455,29.207500457763672 -10.01550006866455,29.207500457763672 C-10.01550006866455,29.207500457763672 -10.01550006866455,-29.207500457763672 -10.01550006866455,-29.207500457763672 C-10.01550006866455,-29.207500457763672 10.01550006866455,-29.207500457763672 10.01550006866455,-29.207500457763672z"></path></g><g opacity="1" transform="matrix(1,0,0,1,998.8189697265625,1545.802978515625)"><path fill="rgb(208,2,27)" fill-opacity="1" d=" M10.01550006866455,-18.420499801635742 C10.01550006866455,-18.420499801635742 10.01550006866455,18.420499801635742 10.01550006866455,18.420499801635742 C10.01550006866455,18.420499801635742 -10.01550006866455,18.420499801635742 -10.01550006866455,18.420499801635742 C-10.01550006866455,18.420499801635742 -10.01550006866455,-18.420499801635742 -10.01550006866455,-18.420499801635742 C-10.01550006866455,-18.420499801635742 10.01550006866455,-18.420499801635742 10.01550006866455,-18.420499801635742z"></path></g><g opacity="1" transform="matrix(1,0,0,1,1031.344970703125,1534.18603515625)"><path fill="rgb(208,2,27)" fill-opacity="1" d=" M10.01550006866455,-30.03700065612793 C10.01550006866455,-30.03700065612793 10.01550006866455,30.03700065612793 10.01550006866455,30.03700065612793 C10.01550006866455,30.03700065612793 -10.01550006866455,30.03700065612793 -10.01550006866455,30.03700065612793 C-10.01550006866455,30.03700065612793 -10.01550006866455,-30.03700065612793 -10.01550006866455,-30.03700065612793 C-10.01550006866455,-30.03700065612793 10.01550006866455,-30.03700065612793 10.01550006866455,-30.03700065612793z"></path></g><g opacity="1" transform="matrix(1,0,0,1,1063.8719482421875,1528.8759765625)"><path fill="rgb(208,2,27)" fill-opacity="1" d=" M10.01550006866455,-35.34749984741211 C10.01550006866455,-35.34749984741211 10.01550006866455,35.34749984741211 10.01550006866455,35.34749984741211 C10.01550006866455,35.34749984741211 -10.01550006866455,35.34749984741211 -10.01550006866455,35.34749984741211 C-10.01550006866455,35.34749984741211 -10.01550006866455,-35.34749984741211 -10.01550006866455,-35.34749984741211 C-10.01550006866455,-35.34749984741211 10.01550006866455,-35.34749984741211 10.01550006866455,-35.34749984741211z"></path></g><g opacity="1" transform="matrix(1,0,0,1,1129.64697265625,1481.8199462890625)"><path fill="rgb(80,227,194)" fill-opacity="1" d=" M30.847999572753906,7.210000038146973 C30.847999572753906,7.210000038146973 -30.847999572753906,7.210000038146973 -30.847999572753906,7.210000038146973 C-34.81399917602539,7.210000038146973 -38.05799865722656,3.9660000801086426 -38.05799865722656,0 C-38.05799865722656,0 -38.05799865722656,0 -38.05799865722656,0 C-38.05799865722656,-3.9660000801086426 -34.81399917602539,-7.210000038146973 -30.847999572753906,-7.210000038146973 C-30.847999572753906,-7.210000038146973 30.847999572753906,-7.210000038146973 30.847999572753906,-7.210000038146973 C34.81399917602539,-7.210000038146973 38.05799865722656,-3.9660000801086426 38.05799865722656,0 C38.05799865722656,0 38.05799865722656,0 38.05799865722656,0 C38.05799865722656,3.9660000801086426 34.81399917602539,7.210000038146973 30.847999572753906,7.210000038146973z"></path></g><g opacity="1" transform="matrix(1,0,0,1,1146.1309814453125,1506.884033203125)"><path fill="rgb(236,243,254)" fill-opacity="1" d=" M47.332000732421875,7.210000038146973 C47.332000732421875,7.210000038146973 -47.332000732421875,7.210000038146973 -47.332000732421875,7.210000038146973 C-51.29800033569336,7.210000038146973 -54.54199981689453,3.9660000801086426 -54.54199981689453,0 C-54.54199981689453,0 -54.54199981689453,0 -54.54199981689453,0 C-54.54199981689453,-3.9660000801086426 -51.29800033569336,-7.210000038146973 -47.332000732421875,-7.210000038146973 C-47.332000732421875,-7.210000038146973 47.332000732421875,-7.210000038146973 47.332000732421875,-7.210000038146973 C51.29800033569336,-7.210000038146973 54.54199981689453,-3.9660000801086426 54.54199981689453,0 C54.54199981689453,0 54.54199981689453,0 54.54199981689453,0 C54.54199981689453,3.9660000801086426 51.29800033569336,7.210000038146973 47.332000732421875,7.210000038146973z"></path></g><g opacity="1" transform="matrix(1,0,0,1,1146.1309814453125,1531.948974609375)"><path fill="rgb(236,243,254)" fill-opacity="1" d=" M47.332000732421875,7.210000038146973 C47.332000732421875,7.210000038146973 -47.332000732421875,7.210000038146973 -47.332000732421875,7.210000038146973 C-51.29800033569336,7.210000038146973 -54.54199981689453,3.9660000801086426 -54.54199981689453,0 C-54.54199981689453,0 -54.54199981689453,0 -54.54199981689453,0 C-54.54199981689453,-3.9660000801086426 -51.29800033569336,-7.210000038146973 -47.332000732421875,-7.210000038146973 C-47.332000732421875,-7.210000038146973 47.332000732421875,-7.210000038146973 47.332000732421875,-7.210000038146973 C51.29800033569336,-7.210000038146973 54.54199981689453,-3.9660000801086426 54.54199981689453,0 C54.54199981689453,0 54.54199981689453,0 54.54199981689453,0 C54.54199981689453,3.9660000801086426 51.29800033569336,7.210000038146973 47.332000732421875,7.210000038146973z"></path></g><g opacity="1" transform="matrix(1,0,0,1,1146.1309814453125,1557.012939453125)"><path fill="rgb(236,243,254)" fill-opacity="1" d=" M47.332000732421875,7.210000038146973 C47.332000732421875,7.210000038146973 -47.332000732421875,7.210000038146973 -47.332000732421875,7.210000038146973 C-51.29800033569336,7.210000038146973 -54.54199981689453,3.9660000801086426 -54.54199981689453,0 C-54.54199981689453,0 -54.54199981689453,0 -54.54199981689453,0 C-54.54199981689453,-3.9660000801086426 -51.29800033569336,-7.210000038146973 -47.332000732421875,-7.210000038146973 C-47.332000732421875,-7.210000038146973 47.332000732421875,-7.210000038146973 47.332000732421875,-7.210000038146973 C51.29800033569336,-7.210000038146973 54.54199981689453,-3.9660000801086426 54.54199981689453,0 C54.54199981689453,0 54.54199981689453,0 54.54199981689453,0 C54.54199981689453,3.9660000801086426 51.29800033569336,7.210000038146973 47.332000732421875,7.210000038146973z"></path></g></g><g clip-path="url(#__lottie_element_19)" transform="matrix(1,0,0,1,0,0)" opacity="1" style="display: block;"><g transform="matrix(1,0,0,1,0,-0.0009765625)" opacity="1" style="display: block;"><g opacity="1" transform="matrix(1,0,0,1,1318.406005859375,1661.4599609375)"><path fill="rgb(7,37,66)" fill-opacity="1" d=" M3.131999969482422,-15.404999732971191 C3.131999969482422,-15.404999732971191 28.645999908447266,1.0069999694824219 22.229999542236328,6.5279998779296875 C15.814000129699707,12.048999786376953 10.442999839782715,9.36299991607666 7.011000156402588,11.75 C3.5789999961853027,14.13700008392334 6.861999988555908,15.779000282287598 -8.505999565124512,15.331000328063965 C-23.874000549316406,14.883000373840332 -24.17300033569336,13.83899974822998 -22.680999755859375,8.616999626159668 C-21.18899917602539,3.3949999809265137 -23.576000213623047,-0.5600000023841858 -15.967000007629395,0 C-8.357999801635742,0.5600000023841858 4.125999927520752,1.753000020980835 4.52400016784668,-2.871999979019165 C4.921999931335449,-7.497000217437744 3.131999969482422,-15.404999732971191 3.131999969482422,-15.404999732971191z"></path></g><g opacity="1" transform="matrix(1,0,0,1,1311.6199951171875,1655.4150390625)"><path fill="rgb(253,200,170)" fill-opacity="1" d=" M-12.21500015258789,-7.568999767303467 C-12.21500015258789,-7.171000003814697 -13.508000373840332,7.947999954223633 -13.109999656677246,8.04800033569336 C-12.711999893188477,8.14799976348877 12.951000213623047,7.848999977111816 13.149999618530273,7.451000213623047 C13.348999977111816,7.052999973297119 12.652999877929688,-5.7789998054504395 12.652999877929688,-5.7789998054504395 C12.652999877929688,-5.7789998054504395 8.673999786376953,-8.067000389099121 8.673999786376953,-8.067000389099121 C8.673999786376953,-8.067000389099121 -12.21500015258789,-7.568999767303467 -12.21500015258789,-7.568999767303467z"></path></g></g><g transform="matrix(1,0,0,1,-0.0001220703125,-0.0009765625)" opacity="1" style="display: block;"><g opacity="1" transform="matrix(1,0,0,1,1190.68505859375,1654.5870361328125)"><path fill="rgb(253,200,170)" fill-opacity="1" d=" M12.21500015258789,-7.568999767303467 C12.21500015258789,-7.171000003814697 13.508000373840332,7.947999954223633 13.109999656677246,8.04699993133545 C12.711999893188477,8.147000312805176 -12.951000213623047,7.848999977111816 -13.149999618530273,7.451000213623047 C-13.348999977111816,7.052999973297119 -12.652999877929688,-5.7789998054504395 -12.652999877929688,-5.7789998054504395 C-12.652999877929688,-5.7789998054504395 -8.673999786376953,-8.067000389099121 -8.673999786376953,-8.067000389099121 C-8.673999786376953,-8.067000389099121 12.21500015258789,-7.568999767303467 12.21500015258789,-7.568999767303467z"></path></g><g opacity="1" transform="matrix(1,0,0,1,1183.8990478515625,1660.6319580078125)"><path fill="rgb(7,37,66)" fill-opacity="1" d=" M-3.131999969482422,-15.404999732971191 C-3.131999969482422,-15.404999732971191 -28.645999908447266,1.0069999694824219 -22.229999542236328,6.5279998779296875 C-15.814000129699707,12.048999786376953 -10.442999839782715,9.36400032043457 -7.011000156402588,11.75100040435791 C-3.5789999961853027,14.137999534606934 -6.861999988555908,15.779000282287598 8.505999565124512,15.331000328063965 C23.874000549316406,14.883000373840332 24.17300033569336,13.83899974822998 22.680999755859375,8.616999626159668 C21.18899917602539,3.3949999809265137 23.57699966430664,-0.5600000023841858 15.967000007629395,0 C8.357999801635742,0.5600000023841858 -4.125999927520752,1.753000020980835 -4.52400016784668,-2.871999979019165 C-4.921999931335449,-7.497000217437744 -3.131999969482422,-15.404999732971191 -3.131999969482422,-15.404999732971191z"></path></g></g><g transform="matrix(1,0,0,1,1250.98095703125,1496.220947265625)" opacity="1" style="display: block;"><g opacity="1" transform="matrix(1,0,0,1,0,0)"><path fill="rgb(208,2,27)" fill-opacity="1" d=" M72.28199768066406,-10.942999839782715 C71.83200073242188,-7.794000148773193 72.05699920654297,83.57499694824219 72.19300079345703,128.33599853515625 C72.19300079345703,128.35000610351562 72.19999694824219,128.35699462890625 72.19300079345703,128.3699951171875 C72.24800109863281,142.95599365234375 72.28199768066406,152.58799743652344 72.28199768066406,152.58799743652344 C72.28199768066406,152.58799743652344 47.21200180053711,152.58799743652344 47.21200180053711,152.58799743652344 C47.21200180053711,152.58799743652344 45.95199966430664,142.35699462890625 45.95199966430664,142.35699462890625 C45.95199966430664,142.35699462890625 28.11400032043457,-2.5869998931884766 28.11400032043457,-2.5869998931884766 C28.11400032043457,-2.5869998931884766 -1.6929999589920044,-97.98400115966797 -1.6929999589920044,-97.98400115966797 C-1.7070000171661377,-98.01100158691406 -1.7130000591278076,-98.03900146484375 -1.7200000286102295,-98.05899810791016 C-1.7200000286102295,-98.06600189208984 -1.7269999980926514,-98.072998046875 -1.7269999980926514,-98.08000183105469 C-1.7269999980926514,-98.08000183105469 -25.003999710083008,-10.942999839782715 -25.003999710083008,-10.942999839782715 C-25.003999710083008,-10.942999839782715 -46.487998962402344,152.58799743652344 -46.487998962402344,152.58799743652344 C-46.487998962402344,152.58799743652344 -72.947998046875,152.58799743652344 -72.947998046875,152.58799743652344 C-72.947998046875,152.58799743652344 -72.947998046875,-14.12600040435791 -72.947998046875,-14.12600040435791 C-72.947998046875,-14.12600040435791 -67.46800231933594,-100.13200378417969 -65.1780014038086,-136.57699584960938 C-64.5780029296875,-146.18099975585938 -64.19599914550781,-152.34300231933594 -64.19599914550781,-152.58799743652344 C-64.19599914550781,-152.58799743652344 63.92499923706055,-148.81199645996094 63.92499923706055,-148.81199645996094 C64.10199737548828,-148.49200439453125 64.27400207519531,-148.14999389648438 64.44400024414062,-147.78900146484375 C65.20099639892578,-146.17999267578125 65.88899993896484,-144.1699981689453 66.51599884033203,-141.81199645996094 C75.05000305175781,-109.91999816894531 72.8270034790039,-14.77400016784668 72.28199768066406,-10.942999839782715z"></path></g></g><g transform="matrix(1,0,0,1,1347.510009765625,1271.9119873046875)" opacity="1" style="display: block;"><g opacity="1" transform="matrix(1,0,0,1,0,0)"><path fill="rgb(253,200,170)" fill-opacity="1" d=" M-17.173999786376953,-69.85299682617188 C-17.173999786376953,-69.85299682617188 3.2039999961853027,-51.92399978637695 3.2039999961853027,-45.95600128173828 C3.2039999961853027,-39.987998962402344 -37.082000732421875,40.882999420166016 -37.082000732421875,40.882999420166016 C-37.082000732421875,40.882999420166016 -28.62700080871582,92.20999908447266 -28.62700080871582,92.20999908447266 C-28.62700080871582,92.20999908447266 -22.857999801635742,89.42400360107422 -25.64299964904785,72.51399993896484 C-28.42799949645996,55.604000091552734 3.2039999961853027,15.020000457763672 3.2039999961853027,15.020000457763672 C3.2039999961853027,15.020000457763672 42.59400177001953,-45.060001373291016 36.426998138427734,-56.400001525878906 C30.260000228881836,-67.73999786376953 16.135000228881836,-92.20999908447266 16.135000228881836,-92.20999908447266 C16.135000228881836,-92.20999908447266 -18.506000518798828,-70.87300109863281 -18.506000518798828,-70.87300109863281 C-18.506000518798828,-70.87300109863281 -17.173999786376953,-69.85299682617188 -17.173999786376953,-69.85299682617188z"></path></g></g><g transform="matrix(-0.39073097705841064,-0.9205049276351929,0.9205049276351929,-0.39073097705841064,619.9332275390625,2722.4169921875)" opacity="1" style="display: block;"><g opacity="1" transform="matrix(1,0,0,1,1146.35498046875,1095.302978515625)"><path fill="rgb(253,200,170)" fill-opacity="1" d=" M-2.078000068664551,-21.382999420166016 C-2.078000068664551,-21.382999420166016 -2.078000068664551,-21.381999969482422 -2.078000068664551,-21.381999969482422 C-4.406000137329102,-23.277999877929688 -7.375,-24.41900062561035 -10.611000061035156,-24.41900062561035 C-18.079999923706055,-24.41900062561035 -24.134000778198242,-18.36400032043457 -24.134000778198242,-10.895000457763672 C-24.134000778198242,-7.921999931335449 -23.163000106811523,-5.182000160217285 -21.53700065612793,-2.950000047683716 C-21.53700065612793,-2.947999954223633 -21.542999267578125,-2.940000057220459 -21.54199981689453,-2.937999963760376 C-21.39299964904785,-2.490000009536743 -2.2929999828338623,24.41900062561035 -2.2929999828338623,24.41900062561035 C-2.2929999828338623,24.41900062561035 24.117000579833984,-0.6129999756813049 24.117000579833984,-0.6129999756813049 C24.91900062561035,-1.8420000076293945 -2.078000068664551,-21.382999420166016 -2.078000068664551,-21.382999420166016z"></path></g><g opacity="1" transform="matrix(1,0,0,1,1195.905029296875,1143.2869873046875)"><path fill="rgb(80,227,194)" fill-opacity="1" d=" M31.628999710083008,-21.940000534057617 C31.628999710083008,-21.940000534057617 -26.624000549316406,-50.92100143432617 -26.624000549316406,-50.92100143432617 C-26.624000549316406,-50.92100143432617 -51.7140007019043,-26.02199935913086 -51.7140007019043,-26.02199935913086 C-51.7140007019043,-26.02199935913086 -53.486000061035156,-24.263999938964844 -53.486000061035156,-24.263999938964844 C-53.486000061035156,-24.263999938964844 -19.014999389648438,29.788000106811523 -19.014999389648438,29.788000106811523 C-17.83799934387207,32.132999420166016 -16.427000045776367,34.3390007019043 -14.812000274658203,36.37799835205078 C-14.812000274658203,36.37799835205078 -14.788000106811523,36.41600036621094 -14.788000106811523,36.41600036621094 C-14.788000106811523,36.41600036621094 -14.78499984741211,36.4119987487793 -14.78499984741211,36.4119987487793 C-7.7729997634887695,45.24700164794922 3.0510001182556152,50.92100143432617 15.206999778747559,50.92100143432617 C36.347999572753906,50.92100143432617 53.486000061035156,33.78300094604492 53.486000061035156,12.642000198364258 C53.486000061035156,-2.619999885559082 44.55099868774414,-15.793000221252441 31.628999710083008,-21.940000534057617z"></path></g></g><g transform="matrix(-0.8910064697265625,-0.453990638256073,0.453990638256073,-0.8910064697265625,1155.8194580078125,1309.875244140625)" opacity="1" style="display: block;"><g opacity="1" transform="matrix(1,0,0,1,0,0)"><path fill="rgb(253,200,170)" fill-opacity="1" d=" M22.434999465942383,55.52000045776367 C22.43600082397461,55.52000045776367 22.447999954223633,55.516998291015625 22.447999954223633,55.516998291015625 C22.447999954223633,55.516998291015625 22.297000885009766,54.983001708984375 22.297000885009766,54.983001708984375 C22.259000778198242,54.8489990234375 22.225000381469727,54.7140007019043 22.183000564575195,54.582000732421875 C22.183000564575195,54.582000732421875 -3.5820000171661377,-36.4109992980957 -3.5820000171661377,-36.4109992980957 C-3.5820000171661377,-36.4109992980957 0.2980000078678131,-48.19900131225586 -1.7910000085830688,-56.85300064086914 C-3.880000114440918,-65.50700378417969 -5.520999908447266,-72.0719985961914 -8.355999946594238,-72.22100067138672 C-11.190999984741211,-72.37000274658203 -8.505000114440918,-58.941001892089844 -8.355999946594238,-58.941001892089844 C-8.206999778747559,-58.941001892089844 -26.70800018310547,-60.731998443603516 -22.08300018310547,-41.63399887084961 C-22.08300018310547,-41.63399887084961 -20.292999267578125,-35.143001556396484 -18.42799949645996,-33.57600021362305 C-16.722000122070312,-32.143001556396484 -6.074999809265137,46.22200012207031 -4.159999847412109,59.89699935913086 C-4.113999843597412,60.422000885009766 -4.045000076293945,60.93899917602539 -3.940999984741211,61.44499969482422 C-3.8980000019073486,61.73899841308594 -3.871000051498413,61.915000915527344 -3.865000009536743,61.93299865722656 C-3.861999988555908,61.941001892089844 -3.8329999446868896,61.94300079345703 -3.812000036239624,61.94599914550781 C-2.3559999465942383,67.84300231933594 2.9560000896453857,72.22200012207031 9.303000450134277,72.22200012207031 C16.77199935913086,72.22200012207031 22.826000213623047,66.16799926757812 22.826000213623047,58.69900131225586 C22.826000213623047,57.60200119018555 22.680999755859375,56.54100036621094 22.434999465942383,55.52000045776367z"></path></g></g><g transform="matrix(1,0,0,1,1249.3900146484375,1094.867919921875)" opacity="1" style="display: block;"><g opacity="1" transform="matrix(1,0,0,1,0,0)"><path fill="rgb(80,227,194)" fill-opacity="1" d=" M18.288000106811523,6.664999961853027 C19.113000869750977,10.720999717712402 19.99799919128418,14.803000450134277 20.072999954223633,15.852999687194824 C20.222999572753906,17.93899917602539 -20.80900001525879,15.102999687194824 -20.80900001525879,15.102999687194824 C-20.80900001525879,15.102999687194824 -17.701000213623047,8.062000274658203 -18.28700065612793,1.812000036239624 C-18.5939998626709,-1.4529999494552612 -18.915000915527344,-4.724999904632568 -19.152999877929688,-7.138000011444092 C-19.316999435424805,-8.706000328063965 -19.43899917602539,-9.911999702453613 -19.520999908447266,-10.51200008392334 C-19.520999908447266,-10.51200008392334 -10.633000373840332,-11.649999618530273 -10.633000373840332,-11.649999618530273 C-10.633000373840332,-11.649999618530273 20.80900001525879,-16.618999481201172 20.80900001525879,-16.618999481201172 C20.80900001525879,-16.618999481201172 19.881999969482422,-13.23799991607666 18.92799949645996,-9.748000144958496 C18.055999755859375,-6.531000137329102 17.1560001373291,-3.2119998931884766 16.94499969482422,-2.3529999256134033 C16.76799964904785,-1.6579999923706055 17.18400001525879,0.9399999976158142 17.756000518798828,3.9660000801086426 C17.927000045776367,4.8379998207092285 18.104000091552734,5.751999855041504 18.288000106811523,6.664999961853027z"></path></g></g><g transform="matrix(1,0,0,1,1272.5989990234375,1234.68994140625)" opacity="1" style="display: block;"><g opacity="1" transform="matrix(1,0,0,1,0,0)"><path fill="rgb(80,227,194)" fill-opacity="1" d=" M94.43000030517578,-54.19200134277344 C94.43000030517578,-54.19200134277344 60.35599899291992,-34.17399978637695 60.35599899291992,-34.17399978637695 C60.35599899291992,-34.17399978637695 55.83000183105469,-31.514999389648438 55.83000183105469,-31.514999389648438 C55.83000183105469,-31.514999389648438 41.11399841308594,-50.606998443603516 41.11399841308594,-50.606998443603516 C32.35499954223633,-29.920000076293945 40.31700134277344,102.5770034790039 43.5,110.93399810791016 C44.652000427246094,113.95999908447266 42.35499954223633,116.57099914550781 37.08599853515625,118.81999969482422 C28.05500030517578,122.68499755859375 10.291999816894531,125.47899627685547 -13.687000274658203,127.49700164794922 C-13.687000274658203,127.49700164794922 -13.71399974822998,127.49700164794922 -13.71399974822998,127.49700164794922 C-14.265999794006348,127.54499816894531 -14.824999809265137,127.59200286865234 -15.390999794006348,127.63999938964844 C-54.37900161743164,130.822998046875 -79.0530014038086,119.68599700927734 -86.20999908447266,114.90799713134766 C-93.3740005493164,110.13700103759766 -75.15299987792969,-25.893999099731445 -81.03600311279297,-36.2859992980957 C-112.24199676513672,-91.40299987792969 -83.31300354003906,-120.83200073242188 -51.400001525878906,-126.00599670410156 C-42.57099914550781,-127.43699645996094 -27.325000762939453,-127.77200317382812 -27.04599952697754,-127.79900360107422 C42.86000061035156,-134.56100463867188 94.43000030517578,-54.19200134277344 94.43000030517578,-54.19200134277344z"></path></g></g><g transform="matrix(1,0,0,1,0,-0.0010986328125)" opacity="1" style="display: block;"><g opacity="1" transform="matrix(1,0,0,1,1245.218994140625,1058.9229736328125)"><path fill="rgb(253,200,170)" fill-opacity="1" d=" M33.180999755859375,4.0929999351501465 C32.35599899291992,12.722000122070312 28.66200065612793,20.493000030517578 23.100000381469727,26.197999954223633 C18.042999267578125,31.39900016784668 11.430999755859375,34.88800048828125 4.007999897003174,35.77399826049805 C3.3949999809265137,35.8489990234375 2.7739999294281006,35.9109992980957 2.1470000743865967,35.94499969482422 C-5.520999908447266,36.402000427246094 -12.746000289916992,34.02899932861328 -18.6560001373291,29.652999877929688 C-26.923999786376953,23.55900001525879 -32.60900115966797,13.560999870300293 -33.297000885009766,1.9869999885559082 C-33.54899978637695,-2.2799999713897705 -33.10599899291992,-6.416999816894531 -32.0629997253418,-10.288999557495117 C-31.18400001525879,-13.574000358581543 -29.875,-16.667999267578125 -28.211999893188477,-19.496999740600586 C-22.69099998474121,-28.849000930786133 -13.222999572753906,-35.28300094604492 -2.140000104904175,-35.944000244140625 C16.25,-37.04199981689453 32.11000061035156,-21.834999084472656 33.29600143432617,-1.9869999885559082 C33.41899871826172,0.07800000160932541 33.37900161743164,2.1089999675750732 33.180999755859375,4.0929999351501465z"></path></g><g opacity="1" transform="matrix(1,0,0,1,1246.925048828125,1046.93994140625)"><path fill="rgb(31,58,111)" fill-opacity="1" d=" M-45.99399948120117,-23.506000518798828 C-45.99399948120117,-23.506000518798828 -46.19300079345703,-4.4079999923706055 -28.089000701904297,1.3609999418258667 C-9.984999656677246,7.130000114440918 -11.973999977111816,7.728000164031982 -12.968999862670898,13.098999977111816 C-13.96399974822998,18.469999313354492 -12.571000099182129,50.10200119018555 27.01799964904785,36.77299880981445 C66.60700225830078,23.444000244140625 38.159000396728516,-44.196998596191406 -2.624000072479248,-39.81999969482422 C-43.40700149536133,-35.44300079345703 -45.99399948120117,-23.506000518798828 -45.99399948120117,-23.506000518798828z"></path></g></g></g><g transform="matrix(1.0002100467681885,0,0,1.0002100467681885,1367.029052734375,614.1339721679688)" opacity="1" style="display: block;"><g opacity="1" transform="matrix(1,0,0,1,0,0)"><path fill="rgb(80,227,194)" fill-opacity="1" d=" M72.89800262451172,0 C72.89800262451172,40.26100158691406 40.26100158691406,72.89800262451172 0,72.89800262451172 C-40.26100158691406,72.89800262451172 -72.89800262451172,40.26100158691406 -72.89800262451172,0 C-72.89800262451172,-40.26100158691406 -40.26100158691406,-72.89800262451172 0,-72.89800262451172 C40.26100158691406,-72.89800262451172 72.89800262451172,-40.26100158691406 72.89800262451172,0z"></path></g></g><g transform="matrix(1.0002100467681885,0,0,1.0002100467681885,662.1270141601562,366.8580017089844)" opacity="1" style="display: block;"><g opacity="1" transform="matrix(1,0,0,1,0,0)"><path fill="rgb(80,227,194)" fill-opacity="1" d=" M0,-67.41799926757812 C37.20799255371094,-67.41799926757812 67.41799926757812,-37.20799255371094 67.41799926757812,0 C67.41799926757812,37.20799255371094 37.20799255371094,67.41799926757812 0,67.41799926757812 C-37.20799255371094,67.41799926757812 -67.41799926757812,37.20799255371094 -67.41799926757812,0 C-67.41799926757812,-37.20799255371094 -37.20799255371094,-67.41799926757812 0,-67.41799926757812z"></path></g></g><g transform="matrix(1.0002100467681885,0,0,1.0002100467681885,1730.0350341796875,483.9630126953125)" opacity="1" style="display: block;"><g opacity="1" transform="matrix(1,0,0,1,0,0)"><path fill="rgb(80,227,194)" fill-opacity="1" d=" M46.44599914550781,0 C46.44599914550781,25.652000427246094 25.652000427246094,46.44599914550781 0,46.44599914550781 C-25.652000427246094,46.44599914550781 -46.44599914550781,25.652000427246094 -46.44599914550781,0 C-46.44599914550781,-25.652000427246094 -25.652000427246094,-46.44599914550781 0,-46.44599914550781 C25.652000427246094,-46.44599914550781 46.44599914550781,-25.652000427246094 46.44599914550781,0z"></path></g></g><g transform="matrix(1.0002100467681885,0,0,1.0002100467681885,289.4649963378906,846.406982421875)" opacity="1" style="display: block;"><g opacity="1" transform="matrix(1,0,0,1,0,0)"><path fill="rgb(80,227,194)" fill-opacity="1" d=" M33.284000396728516,0 C33.284000396728516,18.381999969482422 18.381999969482422,33.284000396728516 0,33.284000396728516 C-18.381999969482422,33.284000396728516 -33.284000396728516,18.381999969482422 -33.284000396728516,0 C-33.284000396728516,-18.381999969482422 -18.381999969482422,-33.284000396728516 0,-33.284000396728516 C18.381999969482422,-33.284000396728516 33.284000396728516,-18.381999969482422 33.284000396728516,0z"></path></g></g><g transform="matrix(1.0002100467681885,0,0,1.0002100467681885,612.2059936523438,764.3419799804688)" opacity="1" style="display: block;"><g opacity="1" transform="matrix(1,0,0,1,0,0)"><path fill="rgb(80,227,194)" fill-opacity="1" d=" M38.595001220703125,0 C38.595001220703125,21.315000534057617 21.315000534057617,38.595001220703125 0,38.595001220703125 C-21.315000534057617,38.595001220703125 -38.595001220703125,21.315000534057617 -38.595001220703125,0 C-38.595001220703125,-21.315000534057617 -21.315000534057617,-38.595001220703125 0,-38.595001220703125 C21.315000534057617,-38.595001220703125 38.595001220703125,-21.315000534057617 38.595001220703125,0z"></path></g></g></g></svg>